<svg width="23" height="23" viewBox="0 0 23 23" fill="none" xmlns="http://www.w3.org/2000/svg">
<path d="M5.5489 7.25053L5.5489 6.12939C5.5489 5.65467 5.93272 5.27085 6.40491 5.27338L16.22 5.27085C16.6947 5.27085 17.0785 5.65467 17.076 6.12686V15.9394C17.076 16.4141 16.6922 16.7979 16.22 16.7954L15.0988 16.7954C14.6191 16.7954 14.2327 16.399 14.2428 15.9192L14.3868 9.98269L7.12962 17.2398C6.79378 17.5757 6.25341 17.5757 5.91757 17.2398L5.10954 16.4318C4.7737 16.096 4.7737 15.5556 5.10954 15.2197L12.3667 7.96261L6.42511 8.10654C5.94282 8.11916 5.54638 7.73282 5.5489 7.25053Z" fill="#0DB75F"/>
</svg>