<svg width="154" height="79" viewBox="0 0 154 79" fill="none" xmlns="http://www.w3.org/2000/svg">
<g clip-path="url(#clip0_0_1)">
<path d="M14.3148 12.397L7.15753 5.91417e-06L4.88239 3.94066L7.49792 8.46134L2.27514 8.45656L0 12.3972L14.3148 12.397Z" fill="#0DB75F"/>
<path d="M30.2763 21.6124L23.1137 9.21229L20.8386 13.1529L23.4541 17.6736L18.2313 17.6688L15.9562 21.6095L30.2763 21.6124Z" fill="#0DB75F"/>
<path d="M46.2325 30.8248L39.0752 18.4277L36.8001 22.3684L39.4156 26.8891L34.1928 26.8843L31.9177 30.825L46.2325 30.8248Z" fill="#0DB75F"/>
<path d="M62.194 40.0402L55.0314 27.64L52.7563 31.5807L55.3718 36.1013L50.149 36.0966L47.8739 40.0372L62.194 40.0402Z" fill="#0DB75F"/>
</g>
<path d="M153.5 59.5C153.5 62.0213 152.297 64.4665 150.031 66.7371C147.764 69.0098 144.457 71.0794 140.332 72.8282C132.083 76.3251 120.652 78.5 108 78.5C95.3479 78.5 83.9172 76.3251 75.6682 72.8282C71.5428 71.0794 68.2364 69.0098 65.9689 66.7371C63.7033 64.4665 62.5 62.0213 62.5 59.5C62.5 56.9787 63.7033 54.5335 65.9689 52.2629C68.2364 49.9902 71.5428 47.9206 75.6682 46.1718C83.9172 42.6749 95.3479 40.5 108 40.5C120.652 40.5 132.083 42.6749 140.332 46.1718C144.457 47.9206 147.764 49.9902 150.031 52.2629C152.297 54.5335 153.5 56.9787 153.5 59.5Z" stroke="#0DB75F"/>
<defs>
<clipPath id="clip0_0_1">
<rect width="67.6831" height="14.3151" fill="white" transform="matrix(0.866025 0.5 0.5 -0.866025 0 12.3972)"/>
</clipPath>
</defs>
</svg>