<svg width="164" height="83" viewBox="0 0 164 83" fill="none" xmlns="http://www.w3.org/2000/svg">
<g clip-path="url(#clip0_0_1)">
<path d="M149.983 13.8038L156.518 1.32826e-06L158.596 4.38781L156.208 9.42146L160.976 9.41614L163.053 13.804L149.983 13.8038Z" fill="#0DB75F"/>
<path d="M135.41 24.0648L141.95 10.2576L144.027 14.6454L141.639 19.679L146.407 19.6737L148.485 24.0615L135.41 24.0648Z" fill="#0DB75F"/>
<path d="M120.841 34.3226L127.376 20.5188L129.453 24.9066L127.065 29.9403L131.834 29.9349L133.911 34.3228L120.841 34.3226Z" fill="#0DB75F"/>
<path d="M106.268 44.5836L112.807 30.7764L114.885 35.1642L112.497 40.1978L117.265 40.1925L119.342 44.5803L106.268 44.5836Z" fill="#0DB75F"/>
</g>
<path d="M91.5 63.5C91.5 66.0213 90.2967 68.4665 88.0311 70.7371C85.7636 73.0098 82.4572 75.0794 78.3318 76.8282C70.0828 80.3251 58.6521 82.5 46 82.5C33.3479 82.5 21.9172 80.3251 13.6682 76.8282C9.54276 75.0794 6.23642 73.0098 3.96886 70.7371C1.70329 68.4665 0.5 66.0213 0.5 63.5C0.5 60.9787 1.70329 58.5335 3.96886 56.2629C6.23642 53.9902 9.54276 51.9206 13.6682 50.1718C21.9172 46.6749 33.3479 44.5 46 44.5C58.6521 44.5 70.0828 46.6749 78.3318 50.1718C82.4572 51.9206 85.7636 53.9902 88.0311 56.2629C90.2967 58.5335 91.5 60.9787 91.5 63.5Z" stroke="#0DB75F"/>
<defs>
<clipPath id="clip0_0_1">
<rect width="65.4531" height="15.2728" fill="white" transform="matrix(-0.817658 0.575704 -0.427895 -0.903828 163.053 13.804)"/>
</clipPath>
</defs>
</svg>