<svg width="92" height="40" viewBox="0 0 92 40" fill="none" xmlns="http://www.w3.org/2000/svg">
<path d="M91.5 19.8223C91.5 22.3436 90.2967 24.7887 88.0311 27.0594C85.7636 29.332 82.4572 31.4017 78.3318 33.1505C70.0828 36.6474 58.6521 38.8223 46 38.8223C33.3479 38.8223 21.9172 36.6474 13.6682 33.1505C9.54276 31.4017 6.23642 29.332 3.96886 27.0594C1.70329 24.7887 0.5 22.3436 0.5 19.8223C0.5 17.3009 1.70329 14.8558 3.96886 12.5851C6.23642 10.3125 9.54276 8.24287 13.6682 6.49403C21.9172 2.99717 33.3479 0.822266 46 0.822266C58.6521 0.822266 70.0828 2.99717 78.3318 6.49403C82.4572 8.24287 85.7636 10.3125 88.0311 12.5851C90.2967 14.8558 91.5 17.3009 91.5 19.8223Z" stroke="#0DB75F"/>
</svg>