<svg width="64" height="88" viewBox="0 0 64 88" fill="none" xmlns="http://www.w3.org/2000/svg">
<path d="M58.29 84.05C59.32 84.05 60.16 84.89 60.16 85.92C60.16 86.95 59.32 87.79 58.29 87.79C57.26 87.79 56.42 86.95 56.42 85.92C56.42 84.89 57.25 84.05 58.29 84.05Z" fill="#E33E38"/>
<path d="M58.29 72.0901C59.32 72.0901 60.16 72.9301 60.16 73.9601C60.16 74.9901 59.32 75.8301 58.29 75.8301C57.26 75.8301 56.42 74.9901 56.42 73.9601C56.42 72.9301 57.25 72.0901 58.29 72.0901Z" fill="#E33E38"/>
<path d="M58.29 60.1401C59.32 60.1401 60.16 60.9801 60.16 62.0101C60.16 63.0401 59.32 63.8801 58.29 63.8801C57.26 63.8801 56.42 63.0401 56.42 62.0101C56.42 60.9801 57.25 60.1401 58.29 60.1401Z" fill="#E33E38"/>
<path d="M58.29 48.1802C59.32 48.1802 60.16 49.0202 60.16 50.0502C60.16 51.0802 59.32 51.9202 58.29 51.9202C57.26 51.9202 56.42 51.0802 56.42 50.0502C56.42 49.0202 57.25 48.1802 58.29 48.1802Z" fill="#E33E38"/>
<path d="M58.29 36.2302C59.32 36.2302 60.16 37.0702 60.16 38.1002C60.16 39.1302 59.32 39.9702 58.29 39.9702C57.26 39.9702 56.42 39.1302 56.42 38.1002C56.42 37.0702 57.25 36.2302 58.29 36.2302Z" fill="#E33E38"/>
<path d="M58.29 24.27C59.32 24.27 60.16 25.11 60.16 26.14C60.16 27.17 59.32 28.01 58.29 28.01C57.26 28.01 56.42 27.17 56.42 26.14C56.42 25.11 57.25 24.27 58.29 24.27Z" fill="#E33E38"/>
<path d="M58.29 12.3201C59.32 12.3201 60.16 13.1601 60.16 14.1901C60.16 15.2201 59.32 16.0601 58.29 16.0601C57.26 16.0601 56.42 15.2201 56.42 14.1901C56.42 13.1501 57.25 12.3201 58.29 12.3201Z" fill="#E33E38"/>
<path d="M58.29 0.360107C59.32 0.360107 60.16 1.20011 60.16 2.23011C60.16 3.26011 59.32 4.10011 58.29 4.10011C57.26 4.10011 56.42 3.26011 56.42 2.23011C56.42 1.20011 57.25 0.360107 58.29 0.360107Z" fill="#E33E38"/>
<path d="M47 84.05C48.03 84.05 48.87 84.89 48.87 85.92C48.87 86.95 48.03 87.79 47 87.79C45.97 87.79 45.13 86.95 45.13 85.92C45.13 84.89 45.97 84.05 47 84.05Z" fill="#E33E38"/>
<path d="M47 72.0901C48.03 72.0901 48.87 72.9301 48.87 73.9601C48.87 74.9901 48.03 75.8301 47 75.8301C45.97 75.8301 45.13 74.9901 45.13 73.9601C45.13 72.9301 45.97 72.0901 47 72.0901Z" fill="#E33E38"/>
<path d="M47 60.1401C48.03 60.1401 48.87 60.9801 48.87 62.0101C48.87 63.0401 48.03 63.8801 47 63.8801C45.97 63.8801 45.13 63.0401 45.13 62.0101C45.13 60.9801 45.97 60.1401 47 60.1401Z" fill="#E33E38"/>
<path d="M47 48.1802C48.03 48.1802 48.87 49.0202 48.87 50.0502C48.87 51.0802 48.03 51.9202 47 51.9202C45.97 51.9202 45.13 51.0802 45.13 50.0502C45.13 49.0202 45.97 48.1802 47 48.1802Z" fill="#E33E38"/>
<path d="M47 36.2302C48.03 36.2302 48.87 37.0702 48.87 38.1002C48.87 39.1302 48.03 39.9702 47 39.9702C45.97 39.9702 45.13 39.1302 45.13 38.1002C45.13 37.0702 45.97 36.2302 47 36.2302Z" fill="#E33E38"/>
<path d="M47 24.27C48.03 24.27 48.87 25.11 48.87 26.14C48.87 27.17 48.03 28.01 47 28.01C45.97 28.01 45.13 27.17 45.13 26.14C45.13 25.11 45.97 24.27 47 24.27Z" fill="#E33E38"/>
<path d="M47 12.3201C48.03 12.3201 48.87 13.1601 48.87 14.1901C48.87 15.2201 48.03 16.0601 47 16.0601C45.97 16.0601 45.13 15.2201 45.13 14.1901C45.13 13.1501 45.97 12.3201 47 12.3201Z" fill="#E33E38"/>
<path d="M47 0.360107C48.03 0.360107 48.87 1.20011 48.87 2.23011C48.87 3.26011 48.03 4.10011 47 4.10011C45.97 4.10011 45.13 3.26011 45.13 2.23011C45.13 1.20011 45.97 0.360107 47 0.360107Z" fill="#E33E38"/>
<path d="M35.72 84.05C36.75 84.05 37.59 84.89 37.59 85.92C37.59 86.95 36.75 87.79 35.72 87.79C34.69 87.79 33.85 86.95 33.85 85.92C33.85 84.89 34.69 84.05 35.72 84.05Z" fill="#E33E38"/>
<path d="M35.72 72.0901C36.75 72.0901 37.59 72.9301 37.59 73.9601C37.59 74.9901 36.75 75.8301 35.72 75.8301C34.69 75.8301 33.85 74.9901 33.85 73.9601C33.85 72.9301 34.69 72.0901 35.72 72.0901Z" fill="#E33E38"/>
<path d="M35.72 60.1401C36.75 60.1401 37.59 60.9801 37.59 62.0101C37.59 63.0401 36.75 63.8801 35.72 63.8801C34.69 63.8801 33.85 63.0401 33.85 62.0101C33.85 60.9801 34.69 60.1401 35.72 60.1401Z" fill="#E33E38"/>
<path d="M35.72 48.1802C36.75 48.1802 37.59 49.0202 37.59 50.0502C37.59 51.0802 36.75 51.9202 35.72 51.9202C34.69 51.9202 33.85 51.0802 33.85 50.0502C33.85 49.0202 34.69 48.1802 35.72 48.1802Z" fill="#E33E38"/>
<path d="M35.72 36.2302C36.75 36.2302 37.59 37.0702 37.59 38.1002C37.59 39.1302 36.75 39.9702 35.72 39.9702C34.69 39.9702 33.85 39.1302 33.85 38.1002C33.85 37.0702 34.69 36.2302 35.72 36.2302Z" fill="#E33E38"/>
<path d="M35.72 24.27C36.75 24.27 37.59 25.11 37.59 26.14C37.59 27.17 36.75 28.01 35.72 28.01C34.69 28.01 33.85 27.17 33.85 26.14C33.85 25.11 34.69 24.27 35.72 24.27Z" fill="#E33E38"/>
<path d="M35.72 12.3201C36.75 12.3201 37.59 13.1601 37.59 14.1901C37.59 15.2201 36.75 16.0601 35.72 16.0601C34.69 16.0601 33.85 15.2201 33.85 14.1901C33.85 13.1501 34.69 12.3201 35.72 12.3201Z" fill="#E33E38"/>
<path d="M35.72 0.360107C36.75 0.360107 37.59 1.20011 37.59 2.23011C37.59 3.26011 36.75 4.10011 35.72 4.10011C34.69 4.10011 33.85 3.26011 33.85 2.23011C33.85 1.20011 34.69 0.360107 35.72 0.360107Z" fill="#E33E38"/>
<path d="M24.4399 84.05C25.4699 84.05 26.3099 84.89 26.3099 85.92C26.3099 86.95 25.4699 87.79 24.4399 87.79C23.4099 87.79 22.5699 86.95 22.5699 85.92C22.5699 84.89 23.3999 84.05 24.4399 84.05Z" fill="#E33E38"/>
<path d="M24.4399 72.0901C25.4699 72.0901 26.3099 72.9301 26.3099 73.9601C26.3099 74.9901 25.4699 75.8301 24.4399 75.8301C23.4099 75.8301 22.5699 74.9901 22.5699 73.9601C22.5699 72.9301 23.3999 72.0901 24.4399 72.0901Z" fill="#E33E38"/>
<path d="M24.4399 60.1401C25.4699 60.1401 26.3099 60.9801 26.3099 62.0101C26.3099 63.0401 25.4699 63.8801 24.4399 63.8801C23.4099 63.8801 22.5699 63.0401 22.5699 62.0101C22.5699 60.9801 23.3999 60.1401 24.4399 60.1401Z" fill="#E33E38"/>
<path d="M24.4399 48.1802C25.4699 48.1802 26.3099 49.0202 26.3099 50.0502C26.3099 51.0802 25.4699 51.9202 24.4399 51.9202C23.4099 51.9202 22.5699 51.0802 22.5699 50.0502C22.5699 49.0202 23.3999 48.1802 24.4399 48.1802Z" fill="#E33E38"/>
<path d="M24.4399 36.2302C25.4699 36.2302 26.3099 37.0702 26.3099 38.1002C26.3099 39.1302 25.4699 39.9702 24.4399 39.9702C23.4099 39.9702 22.5699 39.1302 22.5699 38.1002C22.5699 37.0702 23.3999 36.2302 24.4399 36.2302Z" fill="#E33E38"/>
<path d="M24.4399 24.27C25.4699 24.27 26.3099 25.11 26.3099 26.14C26.3099 27.17 25.4699 28.01 24.4399 28.01C23.4099 28.01 22.5699 27.17 22.5699 26.14C22.5699 25.11 23.3999 24.27 24.4399 24.27Z" fill="#E33E38"/>
<path d="M24.4399 12.3201C25.4699 12.3201 26.3099 13.1601 26.3099 14.1901C26.3099 15.2201 25.4699 16.0601 24.4399 16.0601C23.4099 16.0601 22.5699 15.2201 22.5699 14.1901C22.5699 13.1501 23.3999 12.3201 24.4399 12.3201Z" fill="#E33E38"/>
<path d="M24.4399 0.360107C25.4699 0.360107 26.3099 1.20011 26.3099 2.23011C26.3099 3.26011 25.4699 4.10011 24.4399 4.10011C23.4099 4.10011 22.5699 3.26011 22.5699 2.23011C22.5699 1.20011 23.3999 0.360107 24.4399 0.360107Z" fill="#E33E38"/>
<path d="M13.15 84.05C14.18 84.05 15.02 84.89 15.02 85.92C15.02 86.95 14.18 87.79 13.15 87.79C12.12 87.79 11.28 86.95 11.28 85.92C11.28 84.89 12.12 84.05 13.15 84.05Z" fill="#E33E38"/>
<path d="M13.15 72.0901C14.18 72.0901 15.02 72.9301 15.02 73.9601C15.02 74.9901 14.18 75.8301 13.15 75.8301C12.12 75.8301 11.28 74.9901 11.28 73.9601C11.28 72.9301 12.12 72.0901 13.15 72.0901Z" fill="#E33E38"/>
<path d="M13.15 60.1401C14.18 60.1401 15.02 60.9801 15.02 62.0101C15.02 63.0401 14.18 63.8801 13.15 63.8801C12.12 63.8801 11.28 63.0401 11.28 62.0101C11.28 60.9801 12.12 60.1401 13.15 60.1401Z" fill="#E33E38"/>
<path d="M13.15 48.1802C14.18 48.1802 15.02 49.0202 15.02 50.0502C15.02 51.0802 14.18 51.9202 13.15 51.9202C12.12 51.9202 11.28 51.0802 11.28 50.0502C11.28 49.0202 12.12 48.1802 13.15 48.1802Z" fill="#E33E38"/>
<path d="M13.15 36.2302C14.18 36.2302 15.02 37.0702 15.02 38.1002C15.02 39.1302 14.18 39.9702 13.15 39.9702C12.12 39.9702 11.28 39.1302 11.28 38.1002C11.28 37.0702 12.12 36.2302 13.15 36.2302Z" fill="#E33E38"/>
<path d="M13.15 24.27C14.18 24.27 15.02 25.11 15.02 26.14C15.02 27.17 14.18 28.01 13.15 28.01C12.12 28.01 11.28 27.17 11.28 26.14C11.28 25.11 12.12 24.27 13.15 24.27Z" fill="#E33E38"/>
<path d="M13.15 12.3201C14.18 12.3201 15.02 13.1601 15.02 14.1901C15.02 15.2201 14.18 16.0601 13.15 16.0601C12.12 16.0601 11.28 15.2201 11.28 14.1901C11.28 13.1501 12.12 12.3201 13.15 12.3201Z" fill="#E33E38"/>
<path d="M13.15 0.360107C14.18 0.360107 15.02 1.20011 15.02 2.23011C15.02 3.26011 14.18 4.10011 13.15 4.10011C12.12 4.10011 11.28 3.26011 11.28 2.23011C11.28 1.20011 12.12 0.360107 13.15 0.360107Z" fill="#E33E38"/>
<path d="M1.87 84.05C2.9 84.05 3.74 84.89 3.74 85.92C3.74 86.95 2.9 87.79 1.87 87.79C0.84 87.79 0 86.95 0 85.92C0 84.89 0.84 84.05 1.87 84.05Z" fill="#E33E38"/>
<path d="M1.87 72.0901C2.9 72.0901 3.74 72.9301 3.74 73.9601C3.74 74.9901 2.9 75.8301 1.87 75.8301C0.84 75.8301 0 74.9901 0 73.9601C0 72.9301 0.84 72.0901 1.87 72.0901Z" fill="#E33E38"/>
<path d="M1.87 60.1401C2.9 60.1401 3.74 60.9801 3.74 62.0101C3.74 63.0401 2.9 63.8801 1.87 63.8801C0.84 63.8701 0 63.0401 0 62.0001C0 60.9601 0.84 60.1401 1.87 60.1401Z" fill="#E33E38"/>
<path d="M1.87 48.1802C2.9 48.1802 3.74 49.0202 3.74 50.0502C3.74 51.0802 2.9 51.9202 1.87 51.9202C0.84 51.9202 0 51.0802 0 50.0502C0 49.0202 0.84 48.1802 1.87 48.1802Z" fill="#E33E38"/>
<path d="M1.87 36.2302C2.9 36.2302 3.74 37.0702 3.74 38.1002C3.74 39.1302 2.9 39.9702 1.87 39.9702C0.84 39.9602 0 39.1302 0 38.0902C0 37.0502 0.84 36.2302 1.87 36.2302Z" fill="#E33E38"/>
<path d="M1.87 24.27C2.9 24.27 3.74 25.11 3.74 26.14C3.74 27.17 2.9 28.01 1.87 28.01C0.84 28.01 0 27.17 0 26.14C0 25.11 0.84 24.27 1.87 24.27Z" fill="#E33E38"/>
<path d="M1.87 12.3201C2.9 12.3201 3.74 13.1601 3.74 14.1901C3.74 15.2201 2.9 16.0601 1.87 16.0601C0.84 16.0501 0 15.2101 0 14.1801C0 13.1501 0.84 12.3201 1.87 12.3201Z" fill="#E33E38"/>
<path d="M1.87 0.360107C2.9 0.360107 3.74 1.20011 3.74 2.23011C3.74 3.26011 2.9 4.10011 1.87 4.10011C0.84 4.10011 0 3.26011 0 2.23011C0 1.20011 0.84 0.360107 1.87 0.360107Z" fill="#E33E38"/>
</svg>