<svg width="84" height="113" viewBox="0 0 84 113" fill="none" xmlns="http://www.w3.org/2000/svg">
<g clip-path="url(#clip0_42_1628)">
<path d="M1.94942 110.449C1.94942 111.857 0.801095 113 -0.613806 113C-2.02871 113 -3.17703 111.857 -3.17703 110.449C-3.17703 109.041 -2.02871 107.898 -0.613806 107.898C0.801095 107.891 1.94942 109.034 1.94942 110.449Z" fill="#1891D0"/>
<path d="M18.3609 110.449C18.3609 111.857 17.2126 113 15.7977 113C14.3828 113 13.2344 111.857 13.2344 110.449C13.2344 109.041 14.3828 107.898 15.7977 107.898C17.2126 107.891 18.3609 109.034 18.3609 110.449Z" fill="#1891D0"/>
<path d="M34.7724 110.449C34.7724 111.857 33.6241 113 32.2092 113C30.7943 113 29.6459 111.857 29.6459 110.449C29.6459 109.041 30.7943 107.898 32.2092 107.898C33.6241 107.891 34.7724 109.034 34.7724 110.449Z" fill="#1891D0"/>
<path d="M51.177 110.449C51.177 111.857 50.0287 113 48.6138 113C47.1989 113 46.0506 111.857 46.0506 110.449C46.0506 109.041 47.1989 107.898 48.6138 107.898C50.0287 107.891 51.177 109.034 51.177 110.449Z" fill="#1891D0"/>
<path d="M1.94945 95.0351C1.94945 96.4432 0.801125 97.586 -0.613776 97.586C-2.02868 97.586 -3.177 96.4432 -3.177 95.0351C-3.177 93.627 -2.02868 92.4843 -0.613776 92.4843C0.801125 92.4843 1.94945 93.6202 1.94945 95.0351Z" fill="#1891D0"/>
<path d="M18.3609 95.0351C18.3609 96.4432 17.2126 97.586 15.7977 97.586C14.3828 97.586 13.2345 96.4432 13.2345 95.0351C13.2345 93.627 14.3828 92.4843 15.7977 92.4843C17.2126 92.4843 18.3609 93.6202 18.3609 95.0351Z" fill="#1891D0"/>
<path d="M34.7724 95.0351C34.7724 96.4432 33.6241 97.586 32.2092 97.586C30.7943 97.586 29.646 96.4432 29.646 95.0351C29.646 93.627 30.7943 92.4843 32.2092 92.4843C33.6241 92.4843 34.7724 93.6202 34.7724 95.0351Z" fill="#1891D0"/>
<path d="M51.1771 95.0351C51.1771 96.4432 50.0287 97.586 48.6138 97.586C47.1989 97.586 46.0506 96.4432 46.0506 95.0351C46.0506 93.627 47.1989 92.4843 48.6138 92.4843C50.0287 92.4843 51.1771 93.6202 51.1771 95.0351Z" fill="#1891D0"/>
<path d="M67.5885 95.0351C67.5885 96.4432 66.4402 97.586 65.0253 97.586C63.6104 97.586 62.4621 96.4432 62.4621 95.0351C62.4621 93.627 63.6104 92.4843 65.0253 92.4843C66.4402 92.4843 67.5885 93.6202 67.5885 95.0351Z" fill="#1891D0"/>
<path d="M1.94945 79.6211C1.94945 81.0291 0.801125 82.1719 -0.613776 82.1719C-2.02868 82.1719 -3.177 81.0291 -3.177 79.6211C-3.177 78.213 -2.02868 77.0702 -0.613776 77.0702C0.801125 77.0702 1.94945 78.213 1.94945 79.6211Z" fill="#1891D0"/>
<path d="M18.3609 79.6211C18.3609 81.0291 17.2126 82.1719 15.7977 82.1719C14.3828 82.1719 13.2345 81.0291 13.2345 79.6211C13.2345 78.213 14.3828 77.0702 15.7977 77.0702C17.2126 77.0702 18.3609 78.213 18.3609 79.6211Z" fill="#1891D0"/>
<path d="M34.7724 79.6211C34.7724 81.0291 33.6241 82.1719 32.2092 82.1719C30.7943 82.1719 29.646 81.0291 29.646 79.6211C29.646 78.213 30.7943 77.0702 32.2092 77.0702C33.6241 77.0702 34.7724 78.213 34.7724 79.6211Z" fill="#1891D0"/>
<path d="M51.1771 79.6211C51.1771 81.0291 50.0287 82.1719 48.6138 82.1719C47.1989 82.1719 46.0506 81.0291 46.0506 79.6211C46.0506 78.213 47.1989 77.0702 48.6138 77.0702C50.0287 77.0702 51.1771 78.213 51.1771 79.6211Z" fill="#1891D0"/>
<path d="M67.5885 79.6211C67.5885 81.0291 66.4402 82.1719 65.0253 82.1719C63.6104 82.1719 62.4621 81.0291 62.4621 79.6211C62.4621 78.213 63.6104 77.0702 65.0253 77.0702C66.4402 77.0702 67.5885 78.213 67.5885 79.6211Z" fill="#1891D0"/>
<path d="M1.94942 64.207C1.94942 65.6151 0.801095 66.7579 -0.613806 66.7579C-2.02871 66.7579 -3.17703 65.6151 -3.17703 64.207C-3.17703 62.7989 -2.02871 61.6561 -0.613806 61.6561C0.801095 61.6561 1.94942 62.7989 1.94942 64.207Z" fill="#1891D0"/>
<path d="M18.3609 64.207C18.3609 65.6151 17.2126 66.7579 15.7977 66.7579C14.3828 66.7579 13.2344 65.6151 13.2344 64.207C13.2344 62.7989 14.3828 61.6561 15.7977 61.6561C17.2126 61.6561 18.3609 62.7989 18.3609 64.207Z" fill="#1891D0"/>
<path d="M34.7724 64.207C34.7724 65.6151 33.6241 66.7579 32.2092 66.7579C30.7943 66.7579 29.6459 65.6151 29.6459 64.207C29.6459 62.7989 30.7943 61.6561 32.2092 61.6561C33.6241 61.6561 34.7724 62.7989 34.7724 64.207Z" fill="#1891D0"/>
<path d="M51.177 64.207C51.177 65.6151 50.0287 66.7579 48.6138 66.7579C47.1989 66.7579 46.0506 65.6151 46.0506 64.207C46.0506 62.7989 47.1989 61.6561 48.6138 61.6561C50.0287 61.6561 51.177 62.7989 51.177 64.207Z" fill="#1891D0"/>
<path d="M67.5885 64.207C67.5885 65.6151 66.4402 66.7579 65.0253 66.7579C63.6104 66.7579 62.4621 65.6151 62.4621 64.207C62.4621 62.7989 63.6104 61.6561 65.0253 61.6561C66.4402 61.6561 67.5885 62.7989 67.5885 64.207Z" fill="#1891D0"/>
<path d="M81.4368 66.7579C82.8524 66.7579 84 65.6158 84 64.207C84 62.7982 82.8524 61.6561 81.4368 61.6561C80.0211 61.6561 78.8736 62.7982 78.8736 64.207C78.8736 65.6158 80.0211 66.7579 81.4368 66.7579Z" fill="#1891D0"/>
<path d="M1.94942 48.7929C1.94942 50.201 0.801095 51.3438 -0.613806 51.3438C-2.02871 51.3438 -3.17703 50.201 -3.17703 48.7929C-3.17703 47.3849 -2.02871 46.2421 -0.613806 46.2421C0.801095 46.2421 1.94942 47.3849 1.94942 48.7929Z" fill="#1891D0"/>
<path d="M18.3609 48.7929C18.3609 50.201 17.2126 51.3438 15.7977 51.3438C14.3828 51.3438 13.2344 50.201 13.2344 48.7929C13.2344 47.3849 14.3828 46.2421 15.7977 46.2421C17.2126 46.2421 18.3609 47.3849 18.3609 48.7929Z" fill="#1891D0"/>
<path d="M34.7724 48.7929C34.7724 50.201 33.6241 51.3438 32.2092 51.3438C30.7943 51.3438 29.6459 50.201 29.6459 48.7929C29.6459 47.3849 30.7943 46.2421 32.2092 46.2421C33.6241 46.2421 34.7724 47.3849 34.7724 48.7929Z" fill="#1891D0"/>
<path d="M51.177 48.7929C51.177 50.201 50.0287 51.3438 48.6138 51.3438C47.1989 51.3438 46.0506 50.201 46.0506 48.7929C46.0506 47.3849 47.1989 46.2421 48.6138 46.2421C50.0287 46.2421 51.177 47.3849 51.177 48.7929Z" fill="#1891D0"/>
<path d="M67.5885 48.7929C67.5885 50.201 66.4402 51.3438 65.0253 51.3438C63.6104 51.3438 62.4621 50.201 62.4621 48.7929C62.4621 47.3849 63.6104 46.2421 65.0253 46.2421C66.4402 46.2421 67.5885 47.3849 67.5885 48.7929Z" fill="#1891D0"/>
<path d="M84 48.7929C84 50.201 82.8517 51.3438 81.4368 51.3438C80.0219 51.3438 78.8736 50.201 78.8736 48.7929C78.8736 47.3849 80.0219 46.2421 81.4368 46.2421C82.8517 46.2421 84 47.3849 84 48.7929Z" fill="#1891D0"/>
<path d="M1.94945 33.379C1.94945 34.7871 0.801125 35.9299 -0.613776 35.9299C-2.02868 35.9299 -3.177 34.7871 -3.177 33.379C-3.177 31.9709 -2.02868 30.8281 -0.613776 30.8281C0.801125 30.8281 1.94945 31.9709 1.94945 33.379Z" fill="#1891D0"/>
<path d="M18.3609 33.379C18.3609 34.7871 17.2126 35.9299 15.7977 35.9299C14.3828 35.9299 13.2345 34.7871 13.2345 33.379C13.2345 31.9709 14.3828 30.8281 15.7977 30.8281C17.2126 30.8281 18.3609 31.9709 18.3609 33.379Z" fill="#1891D0"/>
<path d="M34.7724 33.379C34.7724 34.7871 33.6241 35.9299 32.2092 35.9299C30.7943 35.9299 29.646 34.7871 29.646 33.379C29.646 31.9709 30.7943 30.8281 32.2092 30.8281C33.6241 30.8281 34.7724 31.9709 34.7724 33.379Z" fill="#1891D0"/>
<path d="M51.1771 33.379C51.1771 34.7871 50.0287 35.9299 48.6138 35.9299C47.1989 35.9299 46.0506 34.7871 46.0506 33.379C46.0506 31.9709 47.1989 30.8281 48.6138 30.8281C50.0287 30.8281 51.1771 31.9709 51.1771 33.379Z" fill="#1891D0"/>
<path d="M67.5885 33.379C67.5885 34.7871 66.4402 35.9299 65.0253 35.9299C63.6104 35.9299 62.4621 34.7871 62.4621 33.379C62.4621 31.9709 63.6104 30.8281 65.0253 30.8281C66.4402 30.8281 67.5885 31.9709 67.5885 33.379Z" fill="#1891D0"/>
<path d="M1.94945 17.9649C1.94945 19.373 0.801125 20.5158 -0.613776 20.5158C-2.02868 20.5158 -3.177 19.373 -3.177 17.9649C-3.177 16.5569 -2.02868 15.4141 -0.613776 15.4141C0.801125 15.4141 1.94945 16.5569 1.94945 17.9649Z" fill="#1891D0"/>
<path d="M18.3609 17.9649C18.3609 19.373 17.2126 20.5158 15.7977 20.5158C14.3828 20.5158 13.2345 19.373 13.2345 17.9649C13.2345 16.5569 14.3828 15.4141 15.7977 15.4141C17.2126 15.4141 18.3609 16.5569 18.3609 17.9649Z" fill="#1891D0"/>
<path d="M34.7724 17.9649C34.7724 19.373 33.6241 20.5158 32.2092 20.5158C30.7943 20.5158 29.646 19.373 29.646 17.9649C29.646 16.5569 30.7943 15.4141 32.2092 15.4141C33.6241 15.4141 34.7724 16.5569 34.7724 17.9649Z" fill="#1891D0"/>
<path d="M51.1771 17.9649C51.1771 19.373 50.0287 20.5158 48.6138 20.5158C47.1989 20.5158 46.0506 19.373 46.0506 17.9649C46.0506 16.5569 47.1989 15.4141 48.6138 15.4141C50.0287 15.4141 51.1771 16.5569 51.1771 17.9649Z" fill="#1891D0"/>
<path d="M67.5885 17.9649C67.5885 19.373 66.4402 20.5158 65.0253 20.5158C63.6104 20.5158 62.4621 19.373 62.4621 17.9649C62.4621 16.5569 63.6104 15.4141 65.0253 15.4141C66.4402 15.4141 67.5885 16.5569 67.5885 17.9649Z" fill="#1891D0"/>
<path d="M1.94942 2.55087C1.94942 3.95895 0.801095 5.10173 -0.613806 5.10173C-2.02871 5.10173 -3.17703 3.95895 -3.17703 2.55087C-3.17703 1.14279 -2.02871 0 -0.613806 0C0.801095 0 1.94942 1.14279 1.94942 2.55087Z" fill="#1891D0"/>
<path d="M18.3609 2.55087C18.3609 3.95895 17.2126 5.10173 15.7977 5.10173C14.3828 5.10173 13.2344 3.95895 13.2344 2.55087C13.2344 1.14279 14.3759 0 15.7977 0C17.2126 0 18.3609 1.14279 18.3609 2.55087Z" fill="#1891D0"/>
<path d="M34.7724 2.55087C34.7724 3.95895 33.6241 5.10173 32.2092 5.10173C30.7943 5.10173 29.6459 3.95895 29.6459 2.55087C29.6459 1.14279 30.7874 0 32.2023 0C33.6241 0 34.7724 1.14279 34.7724 2.55087Z" fill="#1891D0"/>
<path d="M51.177 2.55087C51.177 3.95895 50.0287 5.10173 48.6138 5.10173C47.1989 5.10173 46.0506 3.95895 46.0506 2.55087C46.0506 1.14279 47.1989 0 48.6138 0C50.0287 0 51.177 1.14279 51.177 2.55087Z" fill="#1891D0"/>
</g>
<defs>
<clipPath id="clip0_42_1628">
<rect width="120" height="113" fill="white" transform="translate(-36)"/>
</clipPath>
</defs>
</svg>