<svg width="88" height="102" viewBox="0 0 88 102" fill="none" xmlns="http://www.w3.org/2000/svg">
<path d="M80.85 98.14C81.88 98.14 82.72 98.98 82.72 100.01C82.72 101.04 81.88 101.88 80.85 101.88C79.82 101.88 78.98 101.04 78.98 100.01C78.98 98.98 79.82 98.14 80.85 98.14Z" fill="black"/>
<path d="M80.85 86.18C81.88 86.18 82.72 87.02 82.72 88.05C82.72 89.08 81.88 89.92 80.85 89.92C79.82 89.92 78.98 89.08 78.98 88.05C78.99 87.02 79.82 86.18 80.85 86.18Z" fill="black"/>
<path d="M80.85 74.23C81.88 74.23 82.72 75.07 82.72 76.1C82.72 77.13 81.88 77.97 80.85 77.97C79.82 77.97 78.98 77.13 78.98 76.1C78.98 75.07 79.82 74.23 80.85 74.23Z" fill="black"/>
<path d="M80.85 62.27C81.88 62.27 82.72 63.11 82.72 64.14C82.72 65.17 81.88 66.01 80.85 66.01C79.82 66.01 78.98 65.17 78.98 64.14C78.99 63.11 79.82 62.27 80.85 62.27Z" fill="black"/>
<path d="M80.85 50.32C81.88 50.32 82.72 51.16 82.72 52.19C82.72 53.22 81.88 54.06 80.85 54.06C79.82 54.06 78.98 53.22 78.98 52.19C78.99 51.15 79.82 50.32 80.85 50.32Z" fill="black"/>
<path d="M80.85 38.36C81.88 38.36 82.72 39.2 82.72 40.23C82.72 41.26 81.88 42.1 80.85 42.1C79.82 42.1 78.98 41.26 78.98 40.23C78.99 39.2 79.82 38.36 80.85 38.36Z" fill="black"/>
<path d="M69.57 98.14C70.6 98.14 71.44 98.98 71.44 100.01C71.44 101.04 70.6 101.88 69.57 101.88C68.54 101.88 67.7 101.04 67.7 100.01C67.7 98.98 68.54 98.14 69.57 98.14Z" fill="black"/>
<path d="M69.57 86.18C70.6 86.18 71.44 87.02 71.44 88.05C71.44 89.08 70.6 89.92 69.57 89.92C68.54 89.92 67.7 89.08 67.7 88.05C67.7 87.02 68.54 86.18 69.57 86.18Z" fill="black"/>
<path d="M69.57 74.23C70.6 74.23 71.44 75.07 71.44 76.1C71.44 77.13 70.6 77.97 69.57 77.97C68.54 77.97 67.7 77.13 67.7 76.1C67.7 75.07 68.54 74.23 69.57 74.23Z" fill="black"/>
<path d="M69.57 62.27C70.6 62.27 71.44 63.11 71.44 64.14C71.44 65.17 70.6 66.01 69.57 66.01C68.54 66.01 67.7 65.17 67.7 64.14C67.7 63.11 68.54 62.27 69.57 62.27Z" fill="black"/>
<path d="M69.57 50.32C70.6 50.32 71.44 51.16 71.44 52.19C71.44 53.22 70.6 54.06 69.57 54.06C68.54 54.06 67.7 53.22 67.7 52.19C67.7 51.15 68.54 50.32 69.57 50.32Z" fill="black"/>
<path d="M69.57 38.36C70.6 38.36 71.44 39.2 71.44 40.23C71.44 41.26 70.6 42.1 69.57 42.1C68.54 42.1 67.7 41.26 67.7 40.23C67.7 39.2 68.54 38.36 69.57 38.36Z" fill="black"/>
<path d="M58.29 98.14C59.32 98.14 60.16 98.98 60.16 100.01C60.16 101.04 59.32 101.88 58.29 101.88C57.26 101.88 56.42 101.04 56.42 100.01C56.42 98.98 57.25 98.14 58.29 98.14Z" fill="black"/>
<path d="M58.29 86.18C59.32 86.18 60.16 87.02 60.16 88.05C60.16 89.08 59.32 89.92 58.29 89.92C57.26 89.92 56.42 89.08 56.42 88.05C56.42 87.02 57.25 86.18 58.29 86.18Z" fill="black"/>
<path d="M58.29 74.23C59.32 74.23 60.16 75.07 60.16 76.1C60.16 77.13 59.32 77.97 58.29 77.97C57.26 77.97 56.42 77.13 56.42 76.1C56.42 75.07 57.25 74.23 58.29 74.23Z" fill="black"/>
<path d="M58.29 62.27C59.32 62.27 60.16 63.11 60.16 64.14C60.16 65.17 59.32 66.01 58.29 66.01C57.26 66.01 56.42 65.17 56.42 64.14C56.42 63.11 57.25 62.27 58.29 62.27Z" fill="black"/>
<path d="M58.29 50.32C59.32 50.32 60.16 51.16 60.16 52.19C60.16 53.22 59.32 54.06 58.29 54.06C57.26 54.06 56.42 53.22 56.42 52.19C56.42 51.15 57.25 50.32 58.29 50.32Z" fill="black"/>
<path d="M58.29 38.36C59.32 38.36 60.16 39.2 60.16 40.23C60.16 41.26 59.32 42.1 58.29 42.1C57.26 42.1 56.42 41.26 56.42 40.23C56.42 39.2 57.25 38.36 58.29 38.36Z" fill="black"/>
<path d="M47 98.14C48.03 98.14 48.87 98.98 48.87 100.01C48.87 101.04 48.03 101.88 47 101.88C45.97 101.88 45.13 101.04 45.13 100.01C45.13 98.98 45.97 98.14 47 98.14Z" fill="black"/>
<path d="M47 86.18C48.03 86.18 48.87 87.02 48.87 88.05C48.87 89.08 48.03 89.92 47 89.92C45.97 89.92 45.13 89.08 45.13 88.05C45.13 87.02 45.97 86.18 47 86.18Z" fill="black"/>
<path d="M47 74.23C48.03 74.23 48.87 75.07 48.87 76.1C48.87 77.13 48.03 77.97 47 77.97C45.97 77.97 45.13 77.13 45.13 76.1C45.13 75.07 45.97 74.23 47 74.23Z" fill="black"/>
<path d="M47 62.27C48.03 62.27 48.87 63.11 48.87 64.14C48.87 65.17 48.03 66.01 47 66.01C45.97 66.01 45.13 65.17 45.13 64.14C45.13 63.11 45.97 62.27 47 62.27Z" fill="black"/>
<path d="M47 50.32C48.03 50.32 48.87 51.16 48.87 52.19C48.87 53.22 48.03 54.06 47 54.06C45.97 54.06 45.13 53.22 45.13 52.19C45.13 51.15 45.97 50.32 47 50.32Z" fill="black"/>
<path d="M47 38.36C48.03 38.36 48.87 39.2 48.87 40.23C48.87 41.26 48.03 42.1 47 42.1C45.97 42.1 45.13 41.26 45.13 40.23C45.13 39.2 45.97 38.36 47 38.36Z" fill="black"/>
<path d="M35.72 98.14C36.75 98.14 37.59 98.98 37.59 100.01C37.59 101.04 36.75 101.88 35.72 101.88C34.69 101.88 33.85 101.04 33.85 100.01C33.85 98.98 34.69 98.14 35.72 98.14Z" fill="black"/>
<path d="M35.72 86.18C36.75 86.18 37.59 87.02 37.59 88.05C37.59 89.08 36.75 89.92 35.72 89.92C34.69 89.92 33.85 89.08 33.85 88.05C33.85 87.02 34.69 86.18 35.72 86.18Z" fill="black"/>
<path d="M35.72 74.23C36.75 74.23 37.59 75.07 37.59 76.1C37.59 77.13 36.75 77.97 35.72 77.97C34.69 77.97 33.85 77.13 33.85 76.1C33.85 75.07 34.69 74.23 35.72 74.23Z" fill="black"/>
<path d="M35.72 62.27C36.75 62.27 37.59 63.11 37.59 64.14C37.59 65.17 36.75 66.01 35.72 66.01C34.69 66.01 33.85 65.17 33.85 64.14C33.85 63.11 34.69 62.27 35.72 62.27Z" fill="black"/>
<path d="M35.72 50.32C36.75 50.32 37.59 51.16 37.59 52.19C37.59 53.22 36.75 54.06 35.72 54.06C34.69 54.06 33.85 53.22 33.85 52.19C33.85 51.15 34.69 50.32 35.72 50.32Z" fill="black"/>
<path d="M35.72 38.36C36.75 38.36 37.59 39.2 37.59 40.23C37.59 41.26 36.75 42.1 35.72 42.1C34.69 42.1 33.85 41.26 33.85 40.23C33.85 39.2 34.69 38.36 35.72 38.36Z" fill="black"/>
<path d="M24.4399 98.14C25.4699 98.14 26.3099 98.98 26.3099 100.01C26.3099 101.04 25.4699 101.88 24.4399 101.88C23.4099 101.88 22.5699 101.04 22.5699 100.01C22.5699 98.98 23.3999 98.14 24.4399 98.14Z" fill="black"/>
<path d="M24.4399 86.18C25.4699 86.18 26.3099 87.02 26.3099 88.05C26.3099 89.08 25.4699 89.92 24.4399 89.92C23.4099 89.92 22.5699 89.08 22.5699 88.05C22.5699 87.02 23.3999 86.18 24.4399 86.18Z" fill="black"/>
<path d="M24.4399 74.23C25.4699 74.23 26.3099 75.07 26.3099 76.1C26.3099 77.13 25.4699 77.97 24.4399 77.97C23.4099 77.97 22.5699 77.13 22.5699 76.1C22.5699 75.07 23.3999 74.23 24.4399 74.23Z" fill="black"/>
<path d="M24.4399 62.27C25.4699 62.27 26.3099 63.11 26.3099 64.14C26.3099 65.17 25.4699 66.01 24.4399 66.01C23.4099 66.01 22.5699 65.17 22.5699 64.14C22.5699 63.11 23.3999 62.27 24.4399 62.27Z" fill="black"/>
<path d="M24.4399 50.32C25.4699 50.32 26.3099 51.16 26.3099 52.19C26.3099 53.22 25.4699 54.06 24.4399 54.06C23.4099 54.06 22.5699 53.22 22.5699 52.19C22.5699 51.15 23.3999 50.32 24.4399 50.32Z" fill="black"/>
<path d="M24.4399 38.36C25.4699 38.36 26.3099 39.2 26.3099 40.23C26.3099 41.26 25.4699 42.1 24.4399 42.1C23.4099 42.1 22.5699 41.26 22.5699 40.23C22.5699 39.2 23.3999 38.36 24.4399 38.36Z" fill="black"/>
<path d="M13.15 98.14C14.18 98.14 15.02 98.98 15.02 100.01C15.02 101.04 14.18 101.88 13.15 101.88C12.12 101.88 11.28 101.04 11.28 100.01C11.28 98.98 12.12 98.14 13.15 98.14Z" fill="black"/>
<path d="M13.15 86.18C14.18 86.18 15.02 87.02 15.02 88.05C15.02 89.08 14.18 89.92 13.15 89.92C12.12 89.92 11.28 89.08 11.28 88.05C11.28 87.02 12.12 86.18 13.15 86.18Z" fill="black"/>
<path d="M13.15 74.23C14.18 74.23 15.02 75.07 15.02 76.1C15.02 77.13 14.18 77.97 13.15 77.97C12.12 77.97 11.28 77.13 11.28 76.1C11.28 75.07 12.12 74.23 13.15 74.23Z" fill="black"/>
<path d="M13.15 62.27C14.18 62.27 15.02 63.11 15.02 64.14C15.02 65.17 14.18 66.01 13.15 66.01C12.12 66.01 11.28 65.17 11.28 64.14C11.28 63.11 12.12 62.27 13.15 62.27Z" fill="black"/>
<path d="M13.15 50.32C14.18 50.32 15.02 51.16 15.02 52.19C15.02 53.22 14.18 54.06 13.15 54.06C12.12 54.06 11.28 53.22 11.28 52.19C11.28 51.15 12.12 50.32 13.15 50.32Z" fill="black"/>
<path d="M13.15 38.36C14.18 38.36 15.02 39.2 15.02 40.23C15.02 41.26 14.18 42.1 13.15 42.1C12.12 42.1 11.28 41.26 11.28 40.23C11.28 39.2 12.12 38.36 13.15 38.36Z" fill="black"/>
<path d="M1.87 98.14C2.9 98.14 3.74 98.98 3.74 100.01C3.74 101.04 2.9 101.88 1.87 101.88C0.84 101.87 0 101.04 0 100C0 98.96 0.84 98.14 1.87 98.14Z" fill="black"/>
<path d="M1.87 86.18C2.9 86.18 3.74 87.02 3.74 88.05C3.74 89.08 2.9 89.92 1.87 89.92C0.84 89.92 0 89.08 0 88.05C0 87.02 0.84 86.18 1.87 86.18Z" fill="black"/>
<path d="M1.87 74.23C2.9 74.23 3.74 75.07 3.74 76.1C3.74 77.13 2.9 77.97 1.87 77.97C0.84 77.96 0 77.13 0 76.09C0 75.05 0.84 74.23 1.87 74.23Z" fill="black"/>
<path d="M1.87 62.27C2.9 62.27 3.74 63.11 3.74 64.14C3.74 65.17 2.9 66.01 1.87 66.01C0.84 66.01 0 65.17 0 64.14C0 63.11 0.84 62.27 1.87 62.27Z" fill="black"/>
<path d="M1.87 50.32C2.9 50.32 3.74 51.16 3.74 52.19C3.74 53.22 2.9 54.06 1.87 54.06C0.84 54.05 0 53.21 0 52.18C0 51.15 0.84 50.32 1.87 50.32Z" fill="black"/>
<path d="M1.87 38.36C2.9 38.36 3.74 39.2 3.74 40.23C3.74 41.26 2.9 42.1 1.87 42.1C0.84 42.1 0 41.26 0 40.23C0 39.2 0.84 38.36 1.87 38.36Z" fill="black"/>
<path d="M119.1 84.81H42.72C40.39 84.81 38.5 82.92 38.5 80.59V4.22C38.51 1.89 40.4 0 42.72 0H119.1C121.42 0 123.31 1.89 123.31 4.22V80.6C123.31 82.92 121.42 84.81 119.1 84.81ZM42.72 1.8C41.39 1.8 40.31 2.88 40.31 4.21V80.59C40.31 81.92 41.39 83 42.72 83H119.1C120.43 83 121.51 81.92 121.51 80.59V4.22C121.51 2.89 120.43 1.81 119.1 1.81H42.72V1.8Z" fill="#E33E38"/>
</svg>
