<svg width="81" height="126" viewBox="0 0 81 126" fill="none" xmlns="http://www.w3.org/2000/svg">
<g clip-path="url(#clip0_45_2920)">
<path d="M37.85 122.05C38.88 122.05 39.72 122.89 39.72 123.92C39.72 124.95 38.88 125.79 37.85 125.79C36.82 125.79 35.98 124.95 35.98 123.92C35.98 122.89 36.82 122.05 37.85 122.05Z" fill="black"/>
<path d="M37.85 110.09C38.88 110.09 39.72 110.93 39.72 111.96C39.72 112.99 38.88 113.83 37.85 113.83C36.82 113.83 35.98 112.99 35.98 111.96C35.99 110.93 36.82 110.09 37.85 110.09Z" fill="black"/>
<path d="M37.85 98.14C38.88 98.14 39.72 98.98 39.72 100.01C39.72 101.04 38.88 101.88 37.85 101.88C36.82 101.88 35.98 101.04 35.98 100.01C35.98 98.98 36.82 98.14 37.85 98.14Z" fill="black"/>
<path d="M37.85 86.18C38.88 86.18 39.72 87.02 39.72 88.05C39.72 89.08 38.88 89.92 37.85 89.92C36.82 89.92 35.98 89.08 35.98 88.05C35.99 87.02 36.82 86.18 37.85 86.18Z" fill="black"/>
<path d="M37.85 74.23C38.88 74.23 39.72 75.07 39.72 76.1C39.72 77.13 38.88 77.97 37.85 77.97C36.82 77.97 35.98 77.13 35.98 76.1C35.98 75.07 36.82 74.23 37.85 74.23Z" fill="black"/>
<path d="M37.85 62.27C38.88 62.27 39.72 63.11 39.72 64.14C39.72 65.17 38.88 66.01 37.85 66.01C36.82 66.01 35.98 65.17 35.98 64.14C35.99 63.11 36.82 62.27 37.85 62.27Z" fill="black"/>
<path d="M37.85 50.32C38.88 50.32 39.72 51.16 39.72 52.19C39.72 53.22 38.88 54.06 37.85 54.06C36.82 54.06 35.98 53.22 35.98 52.19C35.99 51.15 36.82 50.32 37.85 50.32Z" fill="black"/>
<path d="M37.85 38.36C38.88 38.36 39.72 39.2 39.72 40.23C39.72 41.26 38.88 42.1 37.85 42.1C36.82 42.1 35.98 41.26 35.98 40.23C35.99 39.2 36.82 38.36 37.85 38.36Z" fill="black"/>
<path d="M26.57 122.05C27.6 122.05 28.44 122.89 28.44 123.92C28.44 124.95 27.6 125.79 26.57 125.79C25.54 125.79 24.7 124.95 24.7 123.92C24.7 122.89 25.54 122.05 26.57 122.05Z" fill="black"/>
<path d="M26.57 110.09C27.6 110.09 28.44 110.93 28.44 111.96C28.44 112.99 27.6 113.83 26.57 113.83C25.54 113.83 24.7 112.99 24.7 111.96C24.7 110.93 25.54 110.09 26.57 110.09Z" fill="black"/>
<path d="M26.57 98.14C27.6 98.14 28.44 98.98 28.44 100.01C28.44 101.04 27.6 101.88 26.57 101.88C25.54 101.88 24.7 101.04 24.7 100.01C24.7 98.98 25.54 98.14 26.57 98.14Z" fill="black"/>
<path d="M26.57 86.18C27.6 86.18 28.44 87.02 28.44 88.05C28.44 89.08 27.6 89.92 26.57 89.92C25.54 89.92 24.7 89.08 24.7 88.05C24.7 87.02 25.54 86.18 26.57 86.18Z" fill="black"/>
<path d="M26.57 74.23C27.6 74.23 28.44 75.07 28.44 76.1C28.44 77.13 27.6 77.97 26.57 77.97C25.54 77.97 24.7 77.13 24.7 76.1C24.7 75.07 25.54 74.23 26.57 74.23Z" fill="black"/>
<path d="M26.57 62.27C27.6 62.27 28.44 63.11 28.44 64.14C28.44 65.17 27.6 66.01 26.57 66.01C25.54 66.01 24.7 65.17 24.7 64.14C24.7 63.11 25.54 62.27 26.57 62.27Z" fill="black"/>
<path d="M26.57 50.32C27.6 50.32 28.44 51.16 28.44 52.19C28.44 53.22 27.6 54.06 26.57 54.06C25.54 54.06 24.7 53.22 24.7 52.19C24.7 51.15 25.54 50.32 26.57 50.32Z" fill="black"/>
<path d="M26.57 38.36C27.6 38.36 28.44 39.2 28.44 40.23C28.44 41.26 27.6 42.1 26.57 42.1C25.54 42.1 24.7 41.26 24.7 40.23C24.7 39.2 25.54 38.36 26.57 38.36Z" fill="black"/>
<path d="M15.29 122.05C16.32 122.05 17.16 122.89 17.16 123.92C17.16 124.95 16.32 125.79 15.29 125.79C14.26 125.79 13.42 124.95 13.42 123.92C13.42 122.89 14.25 122.05 15.29 122.05Z" fill="black"/>
<path d="M15.29 110.09C16.32 110.09 17.16 110.93 17.16 111.96C17.16 112.99 16.32 113.83 15.29 113.83C14.26 113.83 13.42 112.99 13.42 111.96C13.42 110.93 14.25 110.09 15.29 110.09Z" fill="black"/>
<path d="M15.29 98.14C16.32 98.14 17.16 98.98 17.16 100.01C17.16 101.04 16.32 101.88 15.29 101.88C14.26 101.88 13.42 101.04 13.42 100.01C13.42 98.98 14.25 98.14 15.29 98.14Z" fill="black"/>
<path d="M15.29 86.18C16.32 86.18 17.16 87.02 17.16 88.05C17.16 89.08 16.32 89.92 15.29 89.92C14.26 89.92 13.42 89.08 13.42 88.05C13.42 87.02 14.25 86.18 15.29 86.18Z" fill="black"/>
<path d="M15.29 74.23C16.32 74.23 17.16 75.07 17.16 76.1C17.16 77.13 16.32 77.97 15.29 77.97C14.26 77.97 13.42 77.13 13.42 76.1C13.42 75.07 14.25 74.23 15.29 74.23Z" fill="black"/>
<path d="M15.29 62.27C16.32 62.27 17.16 63.11 17.16 64.14C17.16 65.17 16.32 66.01 15.29 66.01C14.26 66.01 13.42 65.17 13.42 64.14C13.42 63.11 14.25 62.27 15.29 62.27Z" fill="black"/>
<path d="M15.29 50.32C16.32 50.32 17.16 51.16 17.16 52.19C17.16 53.22 16.32 54.06 15.29 54.06C14.26 54.06 13.42 53.22 13.42 52.19C13.42 51.15 14.25 50.32 15.29 50.32Z" fill="black"/>
<path d="M15.29 38.36C16.32 38.36 17.16 39.2 17.16 40.23C17.16 41.26 16.32 42.1 15.29 42.1C14.26 42.1 13.42 41.26 13.42 40.23C13.42 39.2 14.25 38.36 15.29 38.36Z" fill="black"/>
<path d="M4 122.05C5.03 122.05 5.87 122.89 5.87 123.92C5.87 124.95 5.03 125.79 4 125.79C2.97 125.79 2.13 124.95 2.13 123.92C2.13 122.89 2.97 122.05 4 122.05Z" fill="black"/>
<path d="M4 110.09C5.03 110.09 5.87 110.93 5.87 111.96C5.87 112.99 5.03 113.83 4 113.83C2.97 113.83 2.13 112.99 2.13 111.96C2.13 110.93 2.97 110.09 4 110.09Z" fill="black"/>
<path d="M4 98.14C5.03 98.14 5.87 98.98 5.87 100.01C5.87 101.04 5.03 101.88 4 101.88C2.97 101.88 2.13 101.04 2.13 100.01C2.13 98.98 2.97 98.14 4 98.14Z" fill="black"/>
<path d="M4 86.18C5.03 86.18 5.87 87.02 5.87 88.05C5.87 89.08 5.03 89.92 4 89.92C2.97 89.92 2.13 89.08 2.13 88.05C2.13 87.02 2.97 86.18 4 86.18Z" fill="black"/>
<path d="M4 74.23C5.03 74.23 5.87 75.07 5.87 76.1C5.87 77.13 5.03 77.97 4 77.97C2.97 77.97 2.13 77.13 2.13 76.1C2.13 75.07 2.97 74.23 4 74.23Z" fill="black"/>
<path d="M4 62.27C5.03 62.27 5.87 63.11 5.87 64.14C5.87 65.17 5.03 66.01 4 66.01C2.97 66.01 2.13 65.17 2.13 64.14C2.13 63.11 2.97 62.27 4 62.27Z" fill="black"/>
<path d="M4 50.32C5.03 50.32 5.87 51.16 5.87 52.19C5.87 53.22 5.03 54.06 4 54.06C2.97 54.06 2.13 53.22 2.13 52.19C2.13 51.15 2.97 50.32 4 50.32Z" fill="black"/>
<path d="M4 38.36C5.03 38.36 5.87 39.2 5.87 40.23C5.87 41.26 5.03 42.1 4 42.1C2.97 42.1 2.13 41.26 2.13 40.23C2.13 39.2 2.97 38.36 4 38.36Z" fill="black"/>
<path d="M76.1 84.81H-0.279999C-2.61 84.81 -4.5 82.92 -4.5 80.59V4.22C-4.49 1.89 -2.6 0 -0.279999 0H76.1C78.42 0 80.31 1.89 80.31 4.22V80.6C80.31 82.92 78.42 84.81 76.1 84.81ZM-0.279999 1.8C-1.61 1.8 -2.69 2.88 -2.69 4.21V80.59C-2.69 81.92 -1.61 83 -0.279999 83H76.1C77.43 83 78.51 81.92 78.51 80.59V4.22C78.51 2.89 77.43 1.81 76.1 1.81H-0.279999V1.8Z" fill="#0DB75F"/>
</g>
<defs>
<clipPath id="clip0_45_2920">
<rect width="123.31" height="125.78" fill="white" transform="translate(-43)"/>
</clipPath>
</defs>
</svg>
