<svg width="90" height="126" viewBox="0 0 90 126" fill="none" xmlns="http://www.w3.org/2000/svg">
<g clip-path="url(#clip0_42_1388)">
<path d="M80.85 122.05C81.88 122.05 82.72 122.89 82.72 123.92C82.72 124.95 81.88 125.79 80.85 125.79C79.82 125.79 78.98 124.95 78.98 123.92C78.98 122.89 79.82 122.05 80.85 122.05Z" fill="#E33E38"/>
<path d="M80.85 110.09C81.88 110.09 82.72 110.93 82.72 111.96C82.72 112.99 81.88 113.83 80.85 113.83C79.82 113.83 78.98 112.99 78.98 111.96C78.99 110.93 79.82 110.09 80.85 110.09Z" fill="#E33E38"/>
<path d="M80.85 98.1401C81.88 98.1401 82.72 98.9801 82.72 100.01C82.72 101.04 81.88 101.88 80.85 101.88C79.82 101.88 78.98 101.04 78.98 100.01C78.98 98.9801 79.82 98.1401 80.85 98.1401Z" fill="#E33E38"/>
<path d="M80.85 86.1802C81.88 86.1802 82.72 87.0202 82.72 88.0502C82.72 89.0802 81.88 89.9202 80.85 89.9202C79.82 89.9202 78.98 89.0802 78.98 88.0502C78.99 87.0202 79.82 86.1802 80.85 86.1802Z" fill="#E33E38"/>
<path d="M80.85 74.2302C81.88 74.2302 82.72 75.0702 82.72 76.1002C82.72 77.1302 81.88 77.9702 80.85 77.9702C79.82 77.9702 78.98 77.1302 78.98 76.1002C78.98 75.0702 79.82 74.2302 80.85 74.2302Z" fill="#E33E38"/>
<path d="M80.85 62.27C81.88 62.27 82.72 63.11 82.72 64.14C82.72 65.17 81.88 66.01 80.85 66.01C79.82 66.01 78.98 65.17 78.98 64.14C78.99 63.11 79.82 62.27 80.85 62.27Z" fill="#E33E38"/>
<path d="M80.85 50.3201C81.88 50.3201 82.72 51.1601 82.72 52.1901C82.72 53.2201 81.88 54.0601 80.85 54.0601C79.82 54.0601 78.98 53.2201 78.98 52.1901C78.99 51.1501 79.82 50.3201 80.85 50.3201Z" fill="#E33E38"/>
<path d="M80.85 38.3601C81.88 38.3601 82.72 39.2001 82.72 40.2301C82.72 41.2601 81.88 42.1001 80.85 42.1001C79.82 42.1001 78.98 41.2601 78.98 40.2301C78.99 39.2001 79.82 38.3601 80.85 38.3601Z" fill="#E33E38"/>
<path d="M69.57 122.05C70.6 122.05 71.44 122.89 71.44 123.92C71.44 124.95 70.6 125.79 69.57 125.79C68.54 125.79 67.7 124.95 67.7 123.92C67.7 122.89 68.54 122.05 69.57 122.05Z" fill="#E33E38"/>
<path d="M69.57 110.09C70.6 110.09 71.44 110.93 71.44 111.96C71.44 112.99 70.6 113.83 69.57 113.83C68.54 113.83 67.7 112.99 67.7 111.96C67.7 110.93 68.54 110.09 69.57 110.09Z" fill="#E33E38"/>
<path d="M69.57 98.1401C70.6 98.1401 71.44 98.9801 71.44 100.01C71.44 101.04 70.6 101.88 69.57 101.88C68.54 101.88 67.7 101.04 67.7 100.01C67.7 98.9801 68.54 98.1401 69.57 98.1401Z" fill="#E33E38"/>
<path d="M69.57 86.1802C70.6 86.1802 71.44 87.0202 71.44 88.0502C71.44 89.0802 70.6 89.9202 69.57 89.9202C68.54 89.9202 67.7 89.0802 67.7 88.0502C67.7 87.0202 68.54 86.1802 69.57 86.1802Z" fill="#E33E38"/>
<path d="M69.57 74.2302C70.6 74.2302 71.44 75.0702 71.44 76.1002C71.44 77.1302 70.6 77.9702 69.57 77.9702C68.54 77.9702 67.7 77.1302 67.7 76.1002C67.7 75.0702 68.54 74.2302 69.57 74.2302Z" fill="#E33E38"/>
<path d="M69.57 62.27C70.6 62.27 71.44 63.11 71.44 64.14C71.44 65.17 70.6 66.01 69.57 66.01C68.54 66.01 67.7 65.17 67.7 64.14C67.7 63.11 68.54 62.27 69.57 62.27Z" fill="#E33E38"/>
<path d="M69.57 50.3201C70.6 50.3201 71.44 51.1601 71.44 52.1901C71.44 53.2201 70.6 54.0601 69.57 54.0601C68.54 54.0601 67.7 53.2201 67.7 52.1901C67.7 51.1501 68.54 50.3201 69.57 50.3201Z" fill="#E33E38"/>
<path d="M69.57 38.3601C70.6 38.3601 71.44 39.2001 71.44 40.2301C71.44 41.2601 70.6 42.1001 69.57 42.1001C68.54 42.1001 67.7 41.2601 67.7 40.2301C67.7 39.2001 68.54 38.3601 69.57 38.3601Z" fill="#E33E38"/>
<path d="M58.29 122.05C59.32 122.05 60.16 122.89 60.16 123.92C60.16 124.95 59.32 125.79 58.29 125.79C57.26 125.79 56.42 124.95 56.42 123.92C56.42 122.89 57.25 122.05 58.29 122.05Z" fill="#E33E38"/>
<path d="M58.29 110.09C59.32 110.09 60.16 110.93 60.16 111.96C60.16 112.99 59.32 113.83 58.29 113.83C57.26 113.83 56.42 112.99 56.42 111.96C56.42 110.93 57.25 110.09 58.29 110.09Z" fill="#E33E38"/>
<path d="M58.29 98.1401C59.32 98.1401 60.16 98.9801 60.16 100.01C60.16 101.04 59.32 101.88 58.29 101.88C57.26 101.88 56.42 101.04 56.42 100.01C56.42 98.9801 57.25 98.1401 58.29 98.1401Z" fill="#E33E38"/>
<path d="M58.29 86.1802C59.32 86.1802 60.16 87.0202 60.16 88.0502C60.16 89.0802 59.32 89.9202 58.29 89.9202C57.26 89.9202 56.42 89.0802 56.42 88.0502C56.42 87.0202 57.25 86.1802 58.29 86.1802Z" fill="#E33E38"/>
<path d="M58.29 74.2302C59.32 74.2302 60.16 75.0702 60.16 76.1002C60.16 77.1302 59.32 77.9702 58.29 77.9702C57.26 77.9702 56.42 77.1302 56.42 76.1002C56.42 75.0702 57.25 74.2302 58.29 74.2302Z" fill="#E33E38"/>
<path d="M58.29 62.27C59.32 62.27 60.16 63.11 60.16 64.14C60.16 65.17 59.32 66.01 58.29 66.01C57.26 66.01 56.42 65.17 56.42 64.14C56.42 63.11 57.25 62.27 58.29 62.27Z" fill="#E33E38"/>
<path d="M58.29 50.3201C59.32 50.3201 60.16 51.1601 60.16 52.1901C60.16 53.2201 59.32 54.0601 58.29 54.0601C57.26 54.0601 56.42 53.2201 56.42 52.1901C56.42 51.1501 57.25 50.3201 58.29 50.3201Z" fill="#E33E38"/>
<path d="M58.29 38.3601C59.32 38.3601 60.16 39.2001 60.16 40.2301C60.16 41.2601 59.32 42.1001 58.29 42.1001C57.26 42.1001 56.42 41.2601 56.42 40.2301C56.42 39.2001 57.25 38.3601 58.29 38.3601Z" fill="#E33E38"/>
<path d="M47 122.05C48.03 122.05 48.87 122.89 48.87 123.92C48.87 124.95 48.03 125.79 47 125.79C45.97 125.79 45.13 124.95 45.13 123.92C45.13 122.89 45.97 122.05 47 122.05Z" fill="#E33E38"/>
<path d="M47 110.09C48.03 110.09 48.87 110.93 48.87 111.96C48.87 112.99 48.03 113.83 47 113.83C45.97 113.83 45.13 112.99 45.13 111.96C45.13 110.93 45.97 110.09 47 110.09Z" fill="#E33E38"/>
<path d="M47 98.1401C48.03 98.1401 48.87 98.9801 48.87 100.01C48.87 101.04 48.03 101.88 47 101.88C45.97 101.88 45.13 101.04 45.13 100.01C45.13 98.9801 45.97 98.1401 47 98.1401Z" fill="#E33E38"/>
<path d="M47 86.1802C48.03 86.1802 48.87 87.0202 48.87 88.0502C48.87 89.0802 48.03 89.9202 47 89.9202C45.97 89.9202 45.13 89.0802 45.13 88.0502C45.13 87.0202 45.97 86.1802 47 86.1802Z" fill="#E33E38"/>
<path d="M47 74.2302C48.03 74.2302 48.87 75.0702 48.87 76.1002C48.87 77.1302 48.03 77.9702 47 77.9702C45.97 77.9702 45.13 77.1302 45.13 76.1002C45.13 75.0702 45.97 74.2302 47 74.2302Z" fill="#E33E38"/>
<path d="M47 62.27C48.03 62.27 48.87 63.11 48.87 64.14C48.87 65.17 48.03 66.01 47 66.01C45.97 66.01 45.13 65.17 45.13 64.14C45.13 63.11 45.97 62.27 47 62.27Z" fill="#E33E38"/>
<path d="M47 50.3201C48.03 50.3201 48.87 51.1601 48.87 52.1901C48.87 53.2201 48.03 54.0601 47 54.0601C45.97 54.0601 45.13 53.2201 45.13 52.1901C45.13 51.1501 45.97 50.3201 47 50.3201Z" fill="#E33E38"/>
<path d="M47 38.3601C48.03 38.3601 48.87 39.2001 48.87 40.2301C48.87 41.2601 48.03 42.1001 47 42.1001C45.97 42.1001 45.13 41.2601 45.13 40.2301C45.13 39.2001 45.97 38.3601 47 38.3601Z" fill="#E33E38"/>
<path d="M35.72 122.05C36.75 122.05 37.59 122.89 37.59 123.92C37.59 124.95 36.75 125.79 35.72 125.79C34.69 125.79 33.85 124.95 33.85 123.92C33.85 122.89 34.69 122.05 35.72 122.05Z" fill="#E33E38"/>
<path d="M35.72 110.09C36.75 110.09 37.59 110.93 37.59 111.96C37.59 112.99 36.75 113.83 35.72 113.83C34.69 113.83 33.85 112.99 33.85 111.96C33.85 110.93 34.69 110.09 35.72 110.09Z" fill="#E33E38"/>
<path d="M35.72 98.1401C36.75 98.1401 37.59 98.9801 37.59 100.01C37.59 101.04 36.75 101.88 35.72 101.88C34.69 101.88 33.85 101.04 33.85 100.01C33.85 98.9801 34.69 98.1401 35.72 98.1401Z" fill="#E33E38"/>
<path d="M35.72 86.1802C36.75 86.1802 37.59 87.0202 37.59 88.0502C37.59 89.0802 36.75 89.9202 35.72 89.9202C34.69 89.9202 33.85 89.0802 33.85 88.0502C33.85 87.0202 34.69 86.1802 35.72 86.1802Z" fill="#E33E38"/>
<path d="M35.72 74.2302C36.75 74.2302 37.59 75.0702 37.59 76.1002C37.59 77.1302 36.75 77.9702 35.72 77.9702C34.69 77.9702 33.85 77.1302 33.85 76.1002C33.85 75.0702 34.69 74.2302 35.72 74.2302Z" fill="#E33E38"/>
<path d="M35.72 62.27C36.75 62.27 37.59 63.11 37.59 64.14C37.59 65.17 36.75 66.01 35.72 66.01C34.69 66.01 33.85 65.17 33.85 64.14C33.85 63.11 34.69 62.27 35.72 62.27Z" fill="#E33E38"/>
<path d="M35.72 50.3201C36.75 50.3201 37.59 51.1601 37.59 52.1901C37.59 53.2201 36.75 54.0601 35.72 54.0601C34.69 54.0601 33.85 53.2201 33.85 52.1901C33.85 51.1501 34.69 50.3201 35.72 50.3201Z" fill="#E33E38"/>
<path d="M35.72 38.3601C36.75 38.3601 37.59 39.2001 37.59 40.2301C37.59 41.2601 36.75 42.1001 35.72 42.1001C34.69 42.1001 33.85 41.2601 33.85 40.2301C33.85 39.2001 34.69 38.3601 35.72 38.3601Z" fill="#E33E38"/>
<path d="M24.4399 122.05C25.4699 122.05 26.3099 122.89 26.3099 123.92C26.3099 124.95 25.4699 125.79 24.4399 125.79C23.4099 125.79 22.5699 124.95 22.5699 123.92C22.5699 122.89 23.3999 122.05 24.4399 122.05Z" fill="#E33E38"/>
<path d="M24.4399 110.09C25.4699 110.09 26.3099 110.93 26.3099 111.96C26.3099 112.99 25.4699 113.83 24.4399 113.83C23.4099 113.83 22.5699 112.99 22.5699 111.96C22.5699 110.93 23.3999 110.09 24.4399 110.09Z" fill="#E33E38"/>
<path d="M24.4399 98.1401C25.4699 98.1401 26.3099 98.9801 26.3099 100.01C26.3099 101.04 25.4699 101.88 24.4399 101.88C23.4099 101.88 22.5699 101.04 22.5699 100.01C22.5699 98.9801 23.3999 98.1401 24.4399 98.1401Z" fill="#E33E38"/>
<path d="M24.4399 86.1802C25.4699 86.1802 26.3099 87.0202 26.3099 88.0502C26.3099 89.0802 25.4699 89.9202 24.4399 89.9202C23.4099 89.9202 22.5699 89.0802 22.5699 88.0502C22.5699 87.0202 23.3999 86.1802 24.4399 86.1802Z" fill="#E33E38"/>
<path d="M24.4399 74.2302C25.4699 74.2302 26.3099 75.0702 26.3099 76.1002C26.3099 77.1302 25.4699 77.9702 24.4399 77.9702C23.4099 77.9702 22.5699 77.1302 22.5699 76.1002C22.5699 75.0702 23.3999 74.2302 24.4399 74.2302Z" fill="#E33E38"/>
<path d="M24.4399 62.27C25.4699 62.27 26.3099 63.11 26.3099 64.14C26.3099 65.17 25.4699 66.01 24.4399 66.01C23.4099 66.01 22.5699 65.17 22.5699 64.14C22.5699 63.11 23.3999 62.27 24.4399 62.27Z" fill="#E33E38"/>
<path d="M24.4399 50.3201C25.4699 50.3201 26.3099 51.1601 26.3099 52.1901C26.3099 53.2201 25.4699 54.0601 24.4399 54.0601C23.4099 54.0601 22.5699 53.2201 22.5699 52.1901C22.5699 51.1501 23.3999 50.3201 24.4399 50.3201Z" fill="#E33E38"/>
<path d="M24.4399 38.3601C25.4699 38.3601 26.3099 39.2001 26.3099 40.2301C26.3099 41.2601 25.4699 42.1001 24.4399 42.1001C23.4099 42.1001 22.5699 41.2601 22.5699 40.2301C22.5699 39.2001 23.3999 38.3601 24.4399 38.3601Z" fill="#E33E38"/>
<path d="M13.15 122.05C14.18 122.05 15.02 122.89 15.02 123.92C15.02 124.95 14.18 125.79 13.15 125.79C12.12 125.79 11.28 124.95 11.28 123.92C11.28 122.89 12.12 122.05 13.15 122.05Z" fill="#E33E38"/>
<path d="M13.15 110.09C14.18 110.09 15.02 110.93 15.02 111.96C15.02 112.99 14.18 113.83 13.15 113.83C12.12 113.83 11.28 112.99 11.28 111.96C11.28 110.93 12.12 110.09 13.15 110.09Z" fill="#E33E38"/>
<path d="M13.15 98.1401C14.18 98.1401 15.02 98.9801 15.02 100.01C15.02 101.04 14.18 101.88 13.15 101.88C12.12 101.88 11.28 101.04 11.28 100.01C11.28 98.9801 12.12 98.1401 13.15 98.1401Z" fill="#E33E38"/>
<path d="M13.15 86.1802C14.18 86.1802 15.02 87.0202 15.02 88.0502C15.02 89.0802 14.18 89.9202 13.15 89.9202C12.12 89.9202 11.28 89.0802 11.28 88.0502C11.28 87.0202 12.12 86.1802 13.15 86.1802Z" fill="#E33E38"/>
<path d="M13.15 74.2302C14.18 74.2302 15.02 75.0702 15.02 76.1002C15.02 77.1302 14.18 77.9702 13.15 77.9702C12.12 77.9702 11.28 77.1302 11.28 76.1002C11.28 75.0702 12.12 74.2302 13.15 74.2302Z" fill="#E33E38"/>
<path d="M13.15 62.27C14.18 62.27 15.02 63.11 15.02 64.14C15.02 65.17 14.18 66.01 13.15 66.01C12.12 66.01 11.28 65.17 11.28 64.14C11.28 63.11 12.12 62.27 13.15 62.27Z" fill="#E33E38"/>
<path d="M13.15 50.3201C14.18 50.3201 15.02 51.1601 15.02 52.1901C15.02 53.2201 14.18 54.0601 13.15 54.0601C12.12 54.0601 11.28 53.2201 11.28 52.1901C11.28 51.1501 12.12 50.3201 13.15 50.3201Z" fill="#E33E38"/>
<path d="M13.15 38.3601C14.18 38.3601 15.02 39.2001 15.02 40.2301C15.02 41.2601 14.18 42.1001 13.15 42.1001C12.12 42.1001 11.28 41.2601 11.28 40.2301C11.28 39.2001 12.12 38.3601 13.15 38.3601Z" fill="#E33E38"/>
<path d="M1.87 122.05C2.9 122.05 3.74 122.89 3.74 123.92C3.74 124.95 2.9 125.79 1.87 125.79C0.84 125.79 0 124.95 0 123.92C0 122.89 0.84 122.05 1.87 122.05Z" fill="#E33E38"/>
<path d="M1.87 110.09C2.9 110.09 3.74 110.93 3.74 111.96C3.74 112.99 2.9 113.83 1.87 113.83C0.84 113.83 0 112.99 0 111.96C0 110.93 0.84 110.09 1.87 110.09Z" fill="#E33E38"/>
<path d="M1.87 98.1401C2.9 98.1401 3.74 98.9801 3.74 100.01C3.74 101.04 2.9 101.88 1.87 101.88C0.84 101.87 0 101.04 0 100C0 98.9601 0.84 98.1401 1.87 98.1401Z" fill="#E33E38"/>
<path d="M1.87 86.1802C2.9 86.1802 3.74 87.0202 3.74 88.0502C3.74 89.0802 2.9 89.9202 1.87 89.9202C0.84 89.9202 0 89.0802 0 88.0502C0 87.0202 0.84 86.1802 1.87 86.1802Z" fill="#E33E38"/>
<path d="M1.87 74.2302C2.9 74.2302 3.74 75.0702 3.74 76.1002C3.74 77.1302 2.9 77.9702 1.87 77.9702C0.84 77.9602 0 77.1302 0 76.0902C0 75.0502 0.84 74.2302 1.87 74.2302Z" fill="#E33E38"/>
<path d="M1.87 62.27C2.9 62.27 3.74 63.11 3.74 64.14C3.74 65.17 2.9 66.01 1.87 66.01C0.84 66.01 0 65.17 0 64.14C0 63.11 0.84 62.27 1.87 62.27Z" fill="#E33E38"/>
<path d="M1.87 50.3201C2.9 50.3201 3.74 51.1601 3.74 52.1901C3.74 53.2201 2.9 54.0601 1.87 54.0601C0.84 54.0501 0 53.2101 0 52.1801C0 51.1501 0.84 50.3201 1.87 50.3201Z" fill="#E33E38"/>
<path d="M1.87 38.3601C2.9 38.3601 3.74 39.2001 3.74 40.2301C3.74 41.2601 2.9 42.1001 1.87 42.1001C0.84 42.1001 0 41.2601 0 40.2301C0 39.2001 0.84 38.3601 1.87 38.3601Z" fill="#E33E38"/>
<path d="M119.1 84.81H42.72C40.39 84.81 38.5 82.92 38.5 80.59V4.22C38.51 1.89 40.4 0 42.72 0H119.1C121.42 0 123.31 1.89 123.31 4.22V80.6C123.31 82.92 121.42 84.81 119.1 84.81ZM42.72 1.8C41.39 1.8 40.31 2.88 40.31 4.21V80.59C40.31 81.92 41.39 83 42.72 83H119.1C120.43 83 121.51 81.92 121.51 80.59V4.22C121.51 2.89 120.43 1.81 119.1 1.81H42.72V1.8Z" fill="#0DB75F"/>
</g>
<defs>
<clipPath id="clip0_42_1388">
<rect width="123.31" height="125.78" fill="white"/>
</clipPath>
</defs>
</svg>