<svg width="95" height="104" viewBox="0 0 95 104" fill="none" xmlns="http://www.w3.org/2000/svg">
<g clip-path="url(#clip0_102_1386)">
<path d="M12.9495 95.0351C12.9495 96.4432 11.8011 97.586 10.3862 97.586C8.97132 97.586 7.823 96.4432 7.823 95.0351C7.823 93.627 8.97132 92.4843 10.3862 92.4843C11.8011 92.4843 12.9495 93.6202 12.9495 95.0351Z" fill="#E33E38"/>
<path d="M29.3609 95.0351C29.3609 96.4432 28.2126 97.586 26.7977 97.586C25.3828 97.586 24.2345 96.4432 24.2345 95.0351C24.2345 93.627 25.3828 92.4843 26.7977 92.4843C28.2126 92.4843 29.3609 93.6202 29.3609 95.0351Z" fill="#E33E38"/>
<path d="M45.7724 95.0351C45.7724 96.4432 44.6241 97.586 43.2092 97.586C41.7943 97.586 40.646 96.4432 40.646 95.0351C40.646 93.627 41.7943 92.4843 43.2092 92.4843C44.6241 92.4843 45.7724 93.6202 45.7724 95.0351Z" fill="#E33E38"/>
<path d="M62.1771 95.0351C62.1771 96.4432 61.0287 97.586 59.6138 97.586C58.1989 97.586 57.0506 96.4432 57.0506 95.0351C57.0506 93.627 58.1989 92.4843 59.6138 92.4843C61.0287 92.4843 62.1771 93.6202 62.1771 95.0351Z" fill="#E33E38"/>
<path d="M78.5885 95.0351C78.5885 96.4432 77.4402 97.586 76.0253 97.586C74.6104 97.586 73.4621 96.4432 73.4621 95.0351C73.4621 93.627 74.6104 92.4843 76.0253 92.4843C77.4402 92.4843 78.5885 93.6202 78.5885 95.0351Z" fill="#E33E38"/>
<path d="M12.9495 79.6211C12.9495 81.0291 11.8011 82.1719 10.3862 82.1719C8.97132 82.1719 7.823 81.0291 7.823 79.6211C7.823 78.213 8.97132 77.0702 10.3862 77.0702C11.8011 77.0702 12.9495 78.213 12.9495 79.6211Z" fill="#E33E38"/>
<path d="M29.3609 79.6211C29.3609 81.0291 28.2126 82.1719 26.7977 82.1719C25.3828 82.1719 24.2345 81.0291 24.2345 79.6211C24.2345 78.213 25.3828 77.0702 26.7977 77.0702C28.2126 77.0702 29.3609 78.213 29.3609 79.6211Z" fill="#E33E38"/>
<path d="M45.7724 79.6211C45.7724 81.0291 44.6241 82.1719 43.2092 82.1719C41.7943 82.1719 40.646 81.0291 40.646 79.6211C40.646 78.213 41.7943 77.0702 43.2092 77.0702C44.6241 77.0702 45.7724 78.213 45.7724 79.6211Z" fill="#E33E38"/>
<path d="M62.1771 79.6211C62.1771 81.0291 61.0287 82.1719 59.6138 82.1719C58.1989 82.1719 57.0506 81.0291 57.0506 79.6211C57.0506 78.213 58.1989 77.0702 59.6138 77.0702C61.0287 77.0702 62.1771 78.213 62.1771 79.6211Z" fill="#E33E38"/>
<path d="M78.5885 79.6211C78.5885 81.0291 77.4402 82.1719 76.0253 82.1719C74.6104 82.1719 73.4621 81.0291 73.4621 79.6211C73.4621 78.213 74.6104 77.0702 76.0253 77.0702C77.4402 77.0702 78.5885 78.213 78.5885 79.6211Z" fill="#E33E38"/>
<path d="M12.9494 64.207C12.9494 65.6151 11.8011 66.7579 10.3862 66.7579C8.97129 66.7579 7.82297 65.6151 7.82297 64.207C7.82297 62.7989 8.97129 61.6562 10.3862 61.6562C11.8011 61.6562 12.9494 62.7989 12.9494 64.207Z" fill="#E33E38"/>
<path d="M29.3609 64.207C29.3609 65.6151 28.2126 66.7579 26.7977 66.7579C25.3828 66.7579 24.2344 65.6151 24.2344 64.207C24.2344 62.7989 25.3828 61.6562 26.7977 61.6562C28.2126 61.6562 29.3609 62.7989 29.3609 64.207Z" fill="#E33E38"/>
<path d="M45.7724 64.207C45.7724 65.6151 44.6241 66.7579 43.2092 66.7579C41.7943 66.7579 40.6459 65.6151 40.6459 64.207C40.6459 62.7989 41.7943 61.6562 43.2092 61.6562C44.6241 61.6562 45.7724 62.7989 45.7724 64.207Z" fill="#E33E38"/>
<path d="M62.177 64.207C62.177 65.6151 61.0287 66.7579 59.6138 66.7579C58.1989 66.7579 57.0506 65.6151 57.0506 64.207C57.0506 62.7989 58.1989 61.6562 59.6138 61.6562C61.0287 61.6562 62.177 62.7989 62.177 64.207Z" fill="#E33E38"/>
<path d="M78.5885 64.207C78.5885 65.6151 77.4402 66.7579 76.0253 66.7579C74.6104 66.7579 73.4621 65.6151 73.4621 64.207C73.4621 62.7989 74.6104 61.6562 76.0253 61.6562C77.4402 61.6562 78.5885 62.7989 78.5885 64.207Z" fill="#E33E38"/>
<path d="M92.4368 66.7579C93.8524 66.7579 95 65.6158 95 64.207C95 62.7982 93.8524 61.6562 92.4368 61.6562C91.0211 61.6562 89.8736 62.7982 89.8736 64.207C89.8736 65.6158 91.0211 66.7579 92.4368 66.7579Z" fill="#E33E38"/>
<path d="M12.9494 48.793C12.9494 50.2011 11.8011 51.3439 10.3862 51.3439C8.97129 51.3439 7.82297 50.2011 7.82297 48.793C7.82297 47.3849 8.97129 46.2421 10.3862 46.2421C11.8011 46.2421 12.9494 47.3849 12.9494 48.793Z" fill="#E33E38"/>
<path d="M29.3609 48.793C29.3609 50.2011 28.2126 51.3439 26.7977 51.3439C25.3828 51.3439 24.2344 50.2011 24.2344 48.793C24.2344 47.3849 25.3828 46.2421 26.7977 46.2421C28.2126 46.2421 29.3609 47.3849 29.3609 48.793Z" fill="#E33E38"/>
<path d="M45.7724 48.793C45.7724 50.2011 44.6241 51.3439 43.2092 51.3439C41.7943 51.3439 40.6459 50.2011 40.6459 48.793C40.6459 47.3849 41.7943 46.2421 43.2092 46.2421C44.6241 46.2421 45.7724 47.3849 45.7724 48.793Z" fill="#E33E38"/>
<path d="M62.177 48.793C62.177 50.2011 61.0287 51.3439 59.6138 51.3439C58.1989 51.3439 57.0506 50.2011 57.0506 48.793C57.0506 47.3849 58.1989 46.2421 59.6138 46.2421C61.0287 46.2421 62.177 47.3849 62.177 48.793Z" fill="#E33E38"/>
<path d="M78.5885 48.793C78.5885 50.2011 77.4402 51.3439 76.0253 51.3439C74.6104 51.3439 73.4621 50.2011 73.4621 48.793C73.4621 47.3849 74.6104 46.2421 76.0253 46.2421C77.4402 46.2421 78.5885 47.3849 78.5885 48.793Z" fill="#E33E38"/>
<path d="M95 48.793C95 50.2011 93.8517 51.3439 92.4368 51.3439C91.0219 51.3439 89.8736 50.2011 89.8736 48.793C89.8736 47.3849 91.0219 46.2421 92.4368 46.2421C93.8517 46.2421 95 47.3849 95 48.793Z" fill="#E33E38"/>
<path d="M12.9495 33.3789C12.9495 34.787 11.8011 35.9298 10.3862 35.9298C8.97132 35.9298 7.823 34.787 7.823 33.3789C7.823 31.9709 8.97132 30.8281 10.3862 30.8281C11.8011 30.8281 12.9495 31.9709 12.9495 33.3789Z" fill="#E33E38"/>
<path d="M29.3609 33.3789C29.3609 34.787 28.2126 35.9298 26.7977 35.9298C25.3828 35.9298 24.2345 34.787 24.2345 33.3789C24.2345 31.9709 25.3828 30.8281 26.7977 30.8281C28.2126 30.8281 29.3609 31.9709 29.3609 33.3789Z" fill="#E33E38"/>
<path d="M45.7724 33.3789C45.7724 34.787 44.6241 35.9298 43.2092 35.9298C41.7943 35.9298 40.646 34.787 40.646 33.3789C40.646 31.9709 41.7943 30.8281 43.2092 30.8281C44.6241 30.8281 45.7724 31.9709 45.7724 33.3789Z" fill="#E33E38"/>
<path d="M62.1771 33.3789C62.1771 34.787 61.0287 35.9298 59.6138 35.9298C58.1989 35.9298 57.0506 34.787 57.0506 33.3789C57.0506 31.9709 58.1989 30.8281 59.6138 30.8281C61.0287 30.8281 62.1771 31.9709 62.1771 33.3789Z" fill="#E33E38"/>
<path d="M78.5885 33.3789C78.5885 34.787 77.4402 35.9298 76.0253 35.9298C74.6104 35.9298 73.4621 34.787 73.4621 33.3789C73.4621 31.9709 74.6104 30.8281 76.0253 30.8281C77.4402 30.8281 78.5885 31.9709 78.5885 33.3789Z" fill="#E33E38"/>
<path d="M12.9495 17.9649C12.9495 19.373 11.8011 20.5158 10.3862 20.5158C8.97132 20.5158 7.823 19.373 7.823 17.9649C7.823 16.5568 8.97132 15.414 10.3862 15.414C11.8011 15.414 12.9495 16.5568 12.9495 17.9649Z" fill="#E33E38"/>
<path d="M29.3609 17.9649C29.3609 19.373 28.2126 20.5158 26.7977 20.5158C25.3828 20.5158 24.2345 19.373 24.2345 17.9649C24.2345 16.5568 25.3828 15.414 26.7977 15.414C28.2126 15.414 29.3609 16.5568 29.3609 17.9649Z" fill="#E33E38"/>
<path d="M45.7724 17.9649C45.7724 19.373 44.6241 20.5158 43.2092 20.5158C41.7943 20.5158 40.646 19.373 40.646 17.9649C40.646 16.5568 41.7943 15.414 43.2092 15.414C44.6241 15.414 45.7724 16.5568 45.7724 17.9649Z" fill="#E33E38"/>
<path d="M62.1771 17.9649C62.1771 19.373 61.0287 20.5158 59.6138 20.5158C58.1989 20.5158 57.0506 19.373 57.0506 17.9649C57.0506 16.5568 58.1989 15.414 59.6138 15.414C61.0287 15.414 62.1771 16.5568 62.1771 17.9649Z" fill="#E33E38"/>
<path d="M78.5885 17.9649C78.5885 19.373 77.4402 20.5158 76.0253 20.5158C74.6104 20.5158 73.4621 19.373 73.4621 17.9649C73.4621 16.5568 74.6104 15.414 76.0253 15.414C77.4402 15.414 78.5885 16.5568 78.5885 17.9649Z" fill="#E33E38"/>
<path d="M12.9494 2.55087C12.9494 3.95895 11.8011 5.10173 10.3862 5.10173C8.97129 5.10173 7.82297 3.95895 7.82297 2.55087C7.82297 1.14279 8.97129 0 10.3862 0C11.8011 0 12.9494 1.14279 12.9494 2.55087Z" fill="#E33E38"/>
<path d="M29.3609 2.55087C29.3609 3.95895 28.2126 5.10173 26.7977 5.10173C25.3828 5.10173 24.2344 3.95895 24.2344 2.55087C24.2344 1.14279 25.3759 0 26.7977 0C28.2126 0 29.3609 1.14279 29.3609 2.55087Z" fill="#E33E38"/>
<path d="M45.7724 2.55087C45.7724 3.95895 44.6241 5.10173 43.2092 5.10173C41.7943 5.10173 40.6459 3.95895 40.6459 2.55087C40.6459 1.14279 41.7874 0 43.2023 0C44.6241 0 45.7724 1.14279 45.7724 2.55087Z" fill="#E33E38"/>
<path d="M62.177 2.55087C62.177 3.95895 61.0287 5.10173 59.6138 5.10173C58.1989 5.10173 57.0506 3.95895 57.0506 2.55087C57.0506 1.14279 58.1989 0 59.6138 0C61.0287 0 62.177 1.14279 62.177 2.55087Z" fill="#E33E38"/>
</g>
<defs>
<clipPath id="clip0_102_1386">
<rect width="120" height="113" fill="white" transform="translate(-25)"/>
</clipPath>
</defs>
</svg>
