<svg width="207" height="228" viewBox="0 0 207 228" fill="none" xmlns="http://www.w3.org/2000/svg">
<path d="M62 226.733C59.245 226.733 57 223.831 57 220.255C57 216.678 59.245 213.777 62 213.777C64.755 213.777 67 216.685 67 220.255C67 223.824 64.7605 226.733 62 226.733ZM62 215.45C59.9545 215.45 58.2916 217.605 58.2916 220.255C58.2916 222.905 59.9545 225.059 62 225.059C64.0455 225.059 65.7084 222.905 65.7084 220.255C65.7084 217.605 64.0455 215.45 62 215.45Z" fill="#0DB75F"/>
<g clip-path="url(#clip0_0_1)">
<path d="M122.02 130.04C117.05 130.04 113 126 113 121.02C113 116.04 117.05 112 122.02 112C126.99 112 131.04 116.05 131.04 121.02C131.04 125.99 127 130.04 122.02 130.04ZM122.02 114.33C118.33 114.33 115.33 117.33 115.33 121.02C115.33 124.71 118.33 127.71 122.02 127.71C125.71 127.71 128.71 124.71 128.71 121.02C128.71 117.33 125.71 114.33 122.02 114.33Z" fill="#1891D0"/>
</g>
<g clip-path="url(#clip1_0_1)">
<path d="M206.02 123.96C201.05 123.96 197 128 197 132.98C197 137.96 201.05 142 206.02 142C210.99 142 215.04 137.95 215.04 132.98C215.04 128.01 211 123.96 206.02 123.96ZM206.02 139.67C202.33 139.67 199.33 136.67 199.33 132.98C199.33 129.29 202.33 126.29 206.02 126.29C209.71 126.29 212.71 129.29 212.71 132.98C212.71 136.67 209.71 139.67 206.02 139.67Z" fill="#E33E38"/>
</g>
<g clip-path="url(#clip2_0_1)">
<path d="M9.02 105.96C4.05 105.96 0 110 0 114.98C0 119.96 4.05 124 9.02 124C13.99 124 18.04 119.95 18.04 114.98C18.04 110.01 14 105.96 9.02 105.96ZM9.02 121.67C5.33 121.67 2.33 118.67 2.33 114.98C2.33 111.29 5.33 108.29 9.02 108.29C12.71 108.29 15.71 111.29 15.71 114.98C15.71 118.67 12.71 121.67 9.02 121.67Z" fill="#E33E38"/>
</g>
<g clip-path="url(#clip3_0_1)">
<path d="M27.02 209.96C22.05 209.96 18 214 18 218.98C18 223.96 22.05 228 27.02 228C31.99 228 36.04 223.95 36.04 218.98C36.04 214.01 32 209.96 27.02 209.96ZM27.02 225.67C23.33 225.67 20.33 222.67 20.33 218.98C20.33 215.29 23.33 212.29 27.02 212.29C30.71 212.29 33.71 215.29 33.71 218.98C33.71 222.67 30.71 225.67 27.02 225.67Z" fill="#0DB75F"/>
</g>
<g clip-path="url(#clip4_0_1)">
<path d="M163.949 86.4491C163.949 87.8572 162.801 89 161.386 89C159.971 89 158.823 87.8572 158.823 86.4491C158.823 85.041 159.971 83.8982 161.386 83.8982C162.801 83.8914 163.949 85.0342 163.949 86.4491Z" fill="#E33E38"/>
<path d="M180.361 86.4491C180.361 87.8572 179.213 89 177.798 89C176.383 89 175.234 87.8572 175.234 86.4491C175.234 85.041 176.383 83.8982 177.798 83.8982C179.213 83.8914 180.361 85.0342 180.361 86.4491Z" fill="#E33E38"/>
<path d="M196.772 86.4491C196.772 87.8572 195.624 89 194.209 89C192.794 89 191.646 87.8572 191.646 86.4491C191.646 85.041 192.794 83.8982 194.209 83.8982C195.624 83.8914 196.772 85.0342 196.772 86.4491Z" fill="#E33E38"/>
<path d="M147.538 71.035C147.538 72.4431 146.39 73.5859 144.975 73.5859C143.56 73.5859 142.411 72.4431 142.411 71.035C142.411 69.6269 143.56 68.4841 144.975 68.4841C146.39 68.4841 147.538 69.6201 147.538 71.035Z" fill="#E33E38"/>
<path d="M163.949 71.035C163.949 72.4431 162.801 73.5859 161.386 73.5859C159.971 73.5859 158.823 72.4431 158.823 71.035C158.823 69.6269 159.971 68.4841 161.386 68.4841C162.801 68.4841 163.949 69.6201 163.949 71.035Z" fill="#E33E38"/>
<path d="M180.361 71.035C180.361 72.4431 179.213 73.5859 177.798 73.5859C176.383 73.5859 175.234 72.4431 175.234 71.035C175.234 69.6269 176.383 68.4841 177.798 68.4841C179.213 68.4841 180.361 69.6201 180.361 71.035Z" fill="#E33E38"/>
<path d="M196.772 71.035C196.772 72.4431 195.624 73.5859 194.209 73.5859C192.794 73.5859 191.646 72.4431 191.646 71.035C191.646 69.6269 192.794 68.4841 194.209 68.4841C195.624 68.4841 196.772 69.6201 196.772 71.035Z" fill="#E33E38"/>
<path d="M147.538 55.6212C147.538 57.0293 146.39 58.172 144.975 58.172C143.56 58.172 142.411 57.0293 142.411 55.6212C142.411 54.2131 143.56 53.0703 144.975 53.0703C146.39 53.0703 147.538 54.2131 147.538 55.6212Z" fill="#E33E38"/>
<path d="M163.949 55.6212C163.949 57.0293 162.801 58.172 161.386 58.172C159.971 58.172 158.823 57.0293 158.823 55.6212C158.823 54.2131 159.971 53.0703 161.386 53.0703C162.801 53.0703 163.949 54.2131 163.949 55.6212Z" fill="#E33E38"/>
<path d="M180.361 55.6212C180.361 57.0293 179.213 58.172 177.798 58.172C176.383 58.172 175.234 57.0293 175.234 55.6212C175.234 54.2131 176.383 53.0703 177.798 53.0703C179.213 53.0703 180.361 54.2131 180.361 55.6212Z" fill="#E33E38"/>
<path d="M196.772 55.6212C196.772 57.0293 195.624 58.172 194.209 58.172C192.794 58.172 191.646 57.0293 191.646 55.6212C191.646 54.2131 192.794 53.0703 194.209 53.0703C195.624 53.0703 196.772 54.2131 196.772 55.6212Z" fill="#E33E38"/>
<path d="M131.126 40.2071C131.126 41.6152 129.978 42.758 128.563 42.758C127.148 42.758 126 41.6152 126 40.2071C126 38.799 127.148 37.6562 128.563 37.6562C129.978 37.6562 131.126 38.799 131.126 40.2071Z" fill="#E33E38"/>
<path d="M147.538 40.2071C147.538 41.6152 146.39 42.758 144.975 42.758C143.56 42.758 142.411 41.6152 142.411 40.2071C142.411 38.799 143.56 37.6562 144.975 37.6562C146.39 37.6562 147.538 38.799 147.538 40.2071Z" fill="#E33E38"/>
<path d="M163.949 40.2071C163.949 41.6152 162.801 42.758 161.386 42.758C159.971 42.758 158.823 41.6152 158.823 40.2071C158.823 38.799 159.971 37.6562 161.386 37.6562C162.801 37.6562 163.949 38.799 163.949 40.2071Z" fill="#E33E38"/>
<path d="M180.361 40.2071C180.361 41.6152 179.213 42.758 177.798 42.758C176.383 42.758 175.234 41.6152 175.234 40.2071C175.234 38.799 176.383 37.6562 177.798 37.6562C179.213 37.6562 180.361 38.799 180.361 40.2071Z" fill="#E33E38"/>
<path d="M196.772 40.2071C196.772 41.6152 195.624 42.758 194.209 42.758C192.794 42.758 191.646 41.6152 191.646 40.2071C191.646 38.799 192.794 37.6562 194.209 37.6562C195.624 37.6562 196.772 38.799 196.772 40.2071Z" fill="#E33E38"/>
<path d="M131.126 24.7931C131.126 26.2011 129.978 27.3439 128.563 27.3439C127.148 27.3439 126 26.2011 126 24.7931C126 23.385 127.148 22.2422 128.563 22.2422C129.978 22.2422 131.126 23.385 131.126 24.7931Z" fill="#E33E38"/>
<path d="M147.538 24.7931C147.538 26.2011 146.39 27.3439 144.975 27.3439C143.56 27.3439 142.411 26.2011 142.411 24.7931C142.411 23.385 143.56 22.2422 144.975 22.2422C146.39 22.2422 147.538 23.385 147.538 24.7931Z" fill="#E33E38"/>
<path d="M163.949 24.7931C163.949 26.2011 162.801 27.3439 161.386 27.3439C159.971 27.3439 158.823 26.2011 158.823 24.7931C158.823 23.385 159.971 22.2422 161.386 22.2422C162.801 22.2422 163.949 23.385 163.949 24.7931Z" fill="#E33E38"/>
<path d="M180.361 24.7931C180.361 26.2011 179.213 27.3439 177.798 27.3439C176.383 27.3439 175.234 26.2011 175.234 24.7931C175.234 23.385 176.383 22.2422 177.798 22.2422C179.213 22.2422 180.361 23.385 180.361 24.7931Z" fill="#E33E38"/>
<path d="M196.772 24.7931C196.772 26.2011 195.624 27.3439 194.209 27.3439C192.794 27.3439 191.646 26.2011 191.646 24.7931C191.646 23.385 192.794 22.2422 194.209 22.2422C195.624 22.2422 196.772 23.385 196.772 24.7931Z" fill="#E33E38"/>
<path d="M147.538 9.37899C147.538 10.7871 146.39 11.9299 144.975 11.9299C143.56 11.9299 142.411 10.7871 142.411 9.37899C142.411 7.97091 143.56 6.82812 144.975 6.82812C146.39 6.82812 147.538 7.97091 147.538 9.37899Z" fill="#E33E38"/>
<path d="M163.949 9.37899C163.949 10.7871 162.801 11.9299 161.386 11.9299C159.971 11.9299 158.823 10.7871 158.823 9.37899C158.823 7.97091 159.971 6.82812 161.386 6.82812C162.801 6.82812 163.949 7.97091 163.949 9.37899Z" fill="#E33E38"/>
<path d="M180.361 9.37899C180.361 10.7871 179.213 11.9299 177.798 11.9299C176.383 11.9299 175.234 10.7871 175.234 9.37899C175.234 7.97091 176.383 6.82812 177.798 6.82812C179.213 6.82812 180.361 7.97091 180.361 9.37899Z" fill="#E33E38"/>
<path d="M196.772 9.37899C196.772 10.7871 195.624 11.9299 194.209 11.9299C192.794 11.9299 191.646 10.7871 191.646 9.37899C191.646 7.97091 192.794 6.82812 194.209 6.82812C195.624 6.82812 196.772 7.97091 196.772 9.37899Z" fill="#E33E38"/>
</g>
<defs>
<clipPath id="clip0_0_1">
<rect width="18.04" height="18.04" fill="white" transform="translate(113 112)"/>
</clipPath>
<clipPath id="clip1_0_1">
<rect width="18.04" height="18.04" fill="white" transform="matrix(1 0 0 -1 197 142)"/>
</clipPath>
<clipPath id="clip2_0_1">
<rect width="18.04" height="18.04" fill="white" transform="matrix(1 0 0 -1 0 124)"/>
</clipPath>
<clipPath id="clip3_0_1">
<rect width="18.04" height="18.04" fill="white" transform="matrix(1 0 0 -1 18 228)"/>
</clipPath>
<clipPath id="clip4_0_1">
<rect width="120" height="113" fill="white" transform="translate(126 -24)"/>
</clipPath>
</defs>
</svg>