<svg width="88" height="126" viewBox="0 0 88 126" fill="none" xmlns="http://www.w3.org/2000/svg">
<path d="M44.85 122.05C45.88 122.05 46.72 122.89 46.72 123.92C46.72 124.95 45.88 125.79 44.85 125.79C43.82 125.79 42.98 124.95 42.98 123.92C42.98 122.89 43.82 122.05 44.85 122.05Z" fill="#E33E38"/>
<path d="M44.85 110.09C45.88 110.09 46.72 110.93 46.72 111.96C46.72 112.99 45.88 113.83 44.85 113.83C43.82 113.83 42.98 112.99 42.98 111.96C42.99 110.93 43.82 110.09 44.85 110.09Z" fill="#E33E38"/>
<path d="M44.85 98.1401C45.88 98.1401 46.72 98.9801 46.72 100.01C46.72 101.04 45.88 101.88 44.85 101.88C43.82 101.88 42.98 101.04 42.98 100.01C42.98 98.9801 43.82 98.1401 44.85 98.1401Z" fill="#E33E38"/>
<path d="M44.85 86.1802C45.88 86.1802 46.72 87.0202 46.72 88.0502C46.72 89.0802 45.88 89.9202 44.85 89.9202C43.82 89.9202 42.98 89.0802 42.98 88.0502C42.99 87.0202 43.82 86.1802 44.85 86.1802Z" fill="#E33E38"/>
<path d="M44.85 74.2302C45.88 74.2302 46.72 75.0702 46.72 76.1002C46.72 77.1302 45.88 77.9702 44.85 77.9702C43.82 77.9702 42.98 77.1302 42.98 76.1002C42.98 75.0702 43.82 74.2302 44.85 74.2302Z" fill="#E33E38"/>
<path d="M44.85 62.27C45.88 62.27 46.72 63.11 46.72 64.14C46.72 65.17 45.88 66.01 44.85 66.01C43.82 66.01 42.98 65.17 42.98 64.14C42.99 63.11 43.82 62.27 44.85 62.27Z" fill="#E33E38"/>
<path d="M44.85 50.3201C45.88 50.3201 46.72 51.1601 46.72 52.1901C46.72 53.2201 45.88 54.0601 44.85 54.0601C43.82 54.0601 42.98 53.2201 42.98 52.1901C42.99 51.1501 43.82 50.3201 44.85 50.3201Z" fill="#E33E38"/>
<path d="M44.85 38.3601C45.88 38.3601 46.72 39.2001 46.72 40.2301C46.72 41.2601 45.88 42.1001 44.85 42.1001C43.82 42.1001 42.98 41.2601 42.98 40.2301C42.99 39.2001 43.82 38.3601 44.85 38.3601Z" fill="#E33E38"/>
<path d="M33.57 122.05C34.6 122.05 35.44 122.89 35.44 123.92C35.44 124.95 34.6 125.79 33.57 125.79C32.54 125.79 31.7 124.95 31.7 123.92C31.7 122.89 32.54 122.05 33.57 122.05Z" fill="#E33E38"/>
<path d="M33.57 110.09C34.6 110.09 35.44 110.93 35.44 111.96C35.44 112.99 34.6 113.83 33.57 113.83C32.54 113.83 31.7 112.99 31.7 111.96C31.7 110.93 32.54 110.09 33.57 110.09Z" fill="#E33E38"/>
<path d="M33.57 98.1401C34.6 98.1401 35.44 98.9801 35.44 100.01C35.44 101.04 34.6 101.88 33.57 101.88C32.54 101.88 31.7 101.04 31.7 100.01C31.7 98.9801 32.54 98.1401 33.57 98.1401Z" fill="#E33E38"/>
<path d="M33.57 86.1802C34.6 86.1802 35.44 87.0202 35.44 88.0502C35.44 89.0802 34.6 89.9202 33.57 89.9202C32.54 89.9202 31.7 89.0802 31.7 88.0502C31.7 87.0202 32.54 86.1802 33.57 86.1802Z" fill="#E33E38"/>
<path d="M33.57 74.2302C34.6 74.2302 35.44 75.0702 35.44 76.1002C35.44 77.1302 34.6 77.9702 33.57 77.9702C32.54 77.9702 31.7 77.1302 31.7 76.1002C31.7 75.0702 32.54 74.2302 33.57 74.2302Z" fill="#E33E38"/>
<path d="M33.57 62.27C34.6 62.27 35.44 63.11 35.44 64.14C35.44 65.17 34.6 66.01 33.57 66.01C32.54 66.01 31.7 65.17 31.7 64.14C31.7 63.11 32.54 62.27 33.57 62.27Z" fill="#E33E38"/>
<path d="M33.57 50.3201C34.6 50.3201 35.44 51.1601 35.44 52.1901C35.44 53.2201 34.6 54.0601 33.57 54.0601C32.54 54.0601 31.7 53.2201 31.7 52.1901C31.7 51.1501 32.54 50.3201 33.57 50.3201Z" fill="#E33E38"/>
<path d="M33.57 38.3601C34.6 38.3601 35.44 39.2001 35.44 40.2301C35.44 41.2601 34.6 42.1001 33.57 42.1001C32.54 42.1001 31.7 41.2601 31.7 40.2301C31.7 39.2001 32.54 38.3601 33.57 38.3601Z" fill="#E33E38"/>
<path d="M22.29 122.05C23.32 122.05 24.16 122.89 24.16 123.92C24.16 124.95 23.32 125.79 22.29 125.79C21.26 125.79 20.42 124.95 20.42 123.92C20.42 122.89 21.25 122.05 22.29 122.05Z" fill="#E33E38"/>
<path d="M22.29 110.09C23.32 110.09 24.16 110.93 24.16 111.96C24.16 112.99 23.32 113.83 22.29 113.83C21.26 113.83 20.42 112.99 20.42 111.96C20.42 110.93 21.25 110.09 22.29 110.09Z" fill="#E33E38"/>
<path d="M22.29 98.1401C23.32 98.1401 24.16 98.9801 24.16 100.01C24.16 101.04 23.32 101.88 22.29 101.88C21.26 101.88 20.42 101.04 20.42 100.01C20.42 98.9801 21.25 98.1401 22.29 98.1401Z" fill="#E33E38"/>
<path d="M22.29 86.1802C23.32 86.1802 24.16 87.0202 24.16 88.0502C24.16 89.0802 23.32 89.9202 22.29 89.9202C21.26 89.9202 20.42 89.0802 20.42 88.0502C20.42 87.0202 21.25 86.1802 22.29 86.1802Z" fill="#E33E38"/>
<path d="M22.29 74.2302C23.32 74.2302 24.16 75.0702 24.16 76.1002C24.16 77.1302 23.32 77.9702 22.29 77.9702C21.26 77.9702 20.42 77.1302 20.42 76.1002C20.42 75.0702 21.25 74.2302 22.29 74.2302Z" fill="#E33E38"/>
<path d="M22.29 62.27C23.32 62.27 24.16 63.11 24.16 64.14C24.16 65.17 23.32 66.01 22.29 66.01C21.26 66.01 20.42 65.17 20.42 64.14C20.42 63.11 21.25 62.27 22.29 62.27Z" fill="#E33E38"/>
<path d="M22.29 50.3201C23.32 50.3201 24.16 51.1601 24.16 52.1901C24.16 53.2201 23.32 54.0601 22.29 54.0601C21.26 54.0601 20.42 53.2201 20.42 52.1901C20.42 51.1501 21.25 50.3201 22.29 50.3201Z" fill="#E33E38"/>
<path d="M22.29 38.3601C23.32 38.3601 24.16 39.2001 24.16 40.2301C24.16 41.2601 23.32 42.1001 22.29 42.1001C21.26 42.1001 20.42 41.2601 20.42 40.2301C20.42 39.2001 21.25 38.3601 22.29 38.3601Z" fill="#E33E38"/>
<path d="M11 122.05C12.03 122.05 12.87 122.89 12.87 123.92C12.87 124.95 12.03 125.79 11 125.79C9.97 125.79 9.13 124.95 9.13 123.92C9.13 122.89 9.97 122.05 11 122.05Z" fill="#E33E38"/>
<path d="M11 110.09C12.03 110.09 12.87 110.93 12.87 111.96C12.87 112.99 12.03 113.83 11 113.83C9.97 113.83 9.13 112.99 9.13 111.96C9.13 110.93 9.97 110.09 11 110.09Z" fill="#E33E38"/>
<path d="M11 98.1401C12.03 98.1401 12.87 98.9801 12.87 100.01C12.87 101.04 12.03 101.88 11 101.88C9.97 101.88 9.13 101.04 9.13 100.01C9.13 98.9801 9.97 98.1401 11 98.1401Z" fill="#E33E38"/>
<path d="M11 86.1802C12.03 86.1802 12.87 87.0202 12.87 88.0502C12.87 89.0802 12.03 89.9202 11 89.9202C9.97 89.9202 9.13 89.0802 9.13 88.0502C9.13 87.0202 9.97 86.1802 11 86.1802Z" fill="#E33E38"/>
<path d="M11 74.2302C12.03 74.2302 12.87 75.0702 12.87 76.1002C12.87 77.1302 12.03 77.9702 11 77.9702C9.97 77.9702 9.13 77.1302 9.13 76.1002C9.13 75.0702 9.97 74.2302 11 74.2302Z" fill="#E33E38"/>
<path d="M11 62.27C12.03 62.27 12.87 63.11 12.87 64.14C12.87 65.17 12.03 66.01 11 66.01C9.97 66.01 9.13 65.17 9.13 64.14C9.13 63.11 9.97 62.27 11 62.27Z" fill="#E33E38"/>
<path d="M11 50.3201C12.03 50.3201 12.87 51.1601 12.87 52.1901C12.87 53.2201 12.03 54.0601 11 54.0601C9.97 54.0601 9.13 53.2201 9.13 52.1901C9.13 51.1501 9.97 50.3201 11 50.3201Z" fill="#E33E38"/>
<path d="M11 38.3601C12.03 38.3601 12.87 39.2001 12.87 40.2301C12.87 41.2601 12.03 42.1001 11 42.1001C9.97 42.1001 9.13 41.2601 9.13 40.2301C9.13 39.2001 9.97 38.3601 11 38.3601Z" fill="#E33E38"/>
<path d="M-0.279991 122.05C0.750009 122.05 1.59001 122.89 1.59001 123.92C1.59001 124.95 0.750009 125.79 -0.279991 125.79C-1.30999 125.79 -2.14999 124.95 -2.14999 123.92C-2.14999 122.89 -1.30999 122.05 -0.279991 122.05Z" fill="#E33E38"/>
<path d="M-0.279991 110.09C0.750009 110.09 1.59001 110.93 1.59001 111.96C1.59001 112.99 0.750009 113.83 -0.279991 113.83C-1.30999 113.83 -2.14999 112.99 -2.14999 111.96C-2.14999 110.93 -1.30999 110.09 -0.279991 110.09Z" fill="#E33E38"/>
<path d="M-0.279991 98.1401C0.750009 98.1401 1.59001 98.9801 1.59001 100.01C1.59001 101.04 0.750009 101.88 -0.279991 101.88C-1.30999 101.88 -2.14999 101.04 -2.14999 100.01C-2.14999 98.9801 -1.30999 98.1401 -0.279991 98.1401Z" fill="#E33E38"/>
<path d="M-0.279991 86.1802C0.750009 86.1802 1.59001 87.0202 1.59001 88.0502C1.59001 89.0802 0.750009 89.9202 -0.279991 89.9202C-1.30999 89.9202 -2.14999 89.0802 -2.14999 88.0502C-2.14999 87.0202 -1.30999 86.1802 -0.279991 86.1802Z" fill="#E33E38"/>
<path d="M-0.279991 74.2302C0.750009 74.2302 1.59001 75.0702 1.59001 76.1002C1.59001 77.1302 0.750009 77.9702 -0.279991 77.9702C-1.30999 77.9702 -2.14999 77.1302 -2.14999 76.1002C-2.14999 75.0702 -1.30999 74.2302 -0.279991 74.2302Z" fill="#E33E38"/>
<path d="M-0.279991 62.27C0.750009 62.27 1.59001 63.11 1.59001 64.14C1.59001 65.17 0.750009 66.01 -0.279991 66.01C-1.30999 66.01 -2.14999 65.17 -2.14999 64.14C-2.14999 63.11 -1.30999 62.27 -0.279991 62.27Z" fill="#E33E38"/>
<path d="M-0.279991 50.3201C0.750009 50.3201 1.59001 51.1601 1.59001 52.1901C1.59001 53.2201 0.750009 54.0601 -0.279991 54.0601C-1.30999 54.0601 -2.14999 53.2201 -2.14999 52.1901C-2.14999 51.1501 -1.30999 50.3201 -0.279991 50.3201Z" fill="#E33E38"/>
<path d="M-0.279991 38.3601C0.750009 38.3601 1.59001 39.2001 1.59001 40.2301C1.59001 41.2601 0.750009 42.1001 -0.279991 42.1001C-1.30999 42.1001 -2.14999 41.2601 -2.14999 40.2301C-2.14999 39.2001 -1.30999 38.3601 -0.279991 38.3601Z" fill="#E33E38"/>
<path d="M83.1 84.81H6.72C4.39 84.81 2.5 82.92 2.5 80.59V4.22C2.51 1.89 4.4 0 6.72 0H83.1C85.42 0 87.31 1.89 87.31 4.22V80.6C87.31 82.92 85.42 84.81 83.1 84.81ZM6.72 1.8C5.39 1.8 4.31 2.88 4.31 4.21V80.59C4.31 81.92 5.39 83 6.72 83H83.1C84.43 83 85.51 81.92 85.51 80.59V4.22C85.51 2.89 84.43 1.81 83.1 1.81H6.72V1.8Z" fill="#0DB75F"/>
</svg>