<svg width="84" height="113" viewBox="0 0 84 113" fill="none" xmlns="http://www.w3.org/2000/svg">
<g clip-path="url(#clip0_42_1570)">
<path d="M37.9495 110.449C37.9495 111.857 36.8011 113 35.3862 113C33.9713 113 32.823 111.857 32.823 110.449C32.823 109.041 33.9713 107.898 35.3862 107.898C36.8011 107.891 37.9495 109.034 37.9495 110.449Z" fill="#4CAF4F"/>
<path d="M54.3609 110.449C54.3609 111.857 53.2126 113 51.7977 113C50.3828 113 49.2345 111.857 49.2345 110.449C49.2345 109.041 50.3828 107.898 51.7977 107.898C53.2126 107.891 54.3609 109.034 54.3609 110.449Z" fill="#4CAF4F"/>
<path d="M70.7724 110.449C70.7724 111.857 69.6241 113 68.2092 113C66.7943 113 65.646 111.857 65.646 110.449C65.646 109.041 66.7943 107.898 68.2092 107.898C69.6241 107.891 70.7724 109.034 70.7724 110.449Z" fill="#4CAF4F"/>
<path d="M87.1771 110.449C87.1771 111.857 86.0288 113 84.6139 113C83.199 113 82.0507 111.857 82.0507 110.449C82.0507 109.041 83.199 107.898 84.6139 107.898C86.0288 107.891 87.1771 109.034 87.1771 110.449Z" fill="#4CAF4F"/>
<path d="M21.538 95.0351C21.538 96.4432 20.3896 97.586 18.9747 97.586C17.5598 97.586 16.4115 96.4432 16.4115 95.0351C16.4115 93.627 17.5598 92.4843 18.9747 92.4843C20.3896 92.4843 21.538 93.6202 21.538 95.0351Z" fill="#4CAF4F"/>
<path d="M37.9495 95.0351C37.9495 96.4432 36.8011 97.586 35.3862 97.586C33.9713 97.586 32.823 96.4432 32.823 95.0351C32.823 93.627 33.9713 92.4843 35.3862 92.4843C36.8011 92.4843 37.9495 93.6202 37.9495 95.0351Z" fill="#4CAF4F"/>
<path d="M54.3609 95.0351C54.3609 96.4432 53.2126 97.586 51.7977 97.586C50.3828 97.586 49.2345 96.4432 49.2345 95.0351C49.2345 93.627 50.3828 92.4843 51.7977 92.4843C53.2126 92.4843 54.3609 93.6202 54.3609 95.0351Z" fill="#4CAF4F"/>
<path d="M70.7724 95.0351C70.7724 96.4432 69.6241 97.586 68.2092 97.586C66.7943 97.586 65.646 96.4432 65.646 95.0351C65.646 93.627 66.7943 92.4843 68.2092 92.4843C69.6241 92.4843 70.7724 93.6202 70.7724 95.0351Z" fill="#4CAF4F"/>
<path d="M87.177 95.0351C87.177 96.4432 86.0287 97.586 84.6138 97.586C83.1989 97.586 82.0505 96.4432 82.0505 95.0351C82.0505 93.627 83.1989 92.4843 84.6138 92.4843C86.0287 92.4843 87.177 93.6202 87.177 95.0351Z" fill="#4CAF4F"/>
<path d="M21.538 79.6211C21.538 81.0291 20.3896 82.1719 18.9747 82.1719C17.5598 82.1719 16.4115 81.0291 16.4115 79.6211C16.4115 78.213 17.5598 77.0702 18.9747 77.0702C20.3896 77.0702 21.538 78.213 21.538 79.6211Z" fill="#4CAF4F"/>
<path d="M37.9495 79.6211C37.9495 81.0291 36.8011 82.1719 35.3862 82.1719C33.9713 82.1719 32.823 81.0291 32.823 79.6211C32.823 78.213 33.9713 77.0702 35.3862 77.0702C36.8011 77.0702 37.9495 78.213 37.9495 79.6211Z" fill="#4CAF4F"/>
<path d="M54.3609 79.6211C54.3609 81.0291 53.2126 82.1719 51.7977 82.1719C50.3828 82.1719 49.2345 81.0291 49.2345 79.6211C49.2345 78.213 50.3828 77.0702 51.7977 77.0702C53.2126 77.0702 54.3609 78.213 54.3609 79.6211Z" fill="#4CAF4F"/>
<path d="M70.7724 79.6211C70.7724 81.0291 69.6241 82.1719 68.2092 82.1719C66.7943 82.1719 65.646 81.0291 65.646 79.6211C65.646 78.213 66.7943 77.0702 68.2092 77.0702C69.6241 77.0702 70.7724 78.213 70.7724 79.6211Z" fill="#4CAF4F"/>
<path d="M87.177 79.6211C87.177 81.0291 86.0287 82.1719 84.6138 82.1719C83.1989 82.1719 82.0505 81.0291 82.0505 79.6211C82.0505 78.213 83.1989 77.0702 84.6138 77.0702C86.0287 77.0702 87.177 78.213 87.177 79.6211Z" fill="#4CAF4F"/>
<path d="M5.12645 64.207C5.12645 65.6151 3.97813 66.7579 2.56323 66.7579C1.14833 66.7579 0 65.6151 0 64.207C0 62.7989 1.14833 61.6561 2.56323 61.6561C3.97813 61.6561 5.12645 62.7989 5.12645 64.207Z" fill="#4CAF4F"/>
<path d="M21.538 64.207C21.538 65.6151 20.3896 66.7579 18.9747 66.7579C17.5598 66.7579 16.4115 65.6151 16.4115 64.207C16.4115 62.7989 17.5598 61.6561 18.9747 61.6561C20.3896 61.6561 21.538 62.7989 21.538 64.207Z" fill="#4CAF4F"/>
<path d="M37.9495 64.207C37.9495 65.6151 36.8011 66.7579 35.3862 66.7579C33.9713 66.7579 32.823 65.6151 32.823 64.207C32.823 62.7989 33.9713 61.6561 35.3862 61.6561C36.8011 61.6561 37.9495 62.7989 37.9495 64.207Z" fill="#4CAF4F"/>
<path d="M54.3609 64.207C54.3609 65.6151 53.2126 66.7579 51.7977 66.7579C50.3828 66.7579 49.2345 65.6151 49.2345 64.207C49.2345 62.7989 50.3828 61.6561 51.7977 61.6561C53.2126 61.6561 54.3609 62.7989 54.3609 64.207Z" fill="#4CAF4F"/>
<path d="M70.7724 64.207C70.7724 65.6151 69.6241 66.7579 68.2092 66.7579C66.7943 66.7579 65.646 65.6151 65.646 64.207C65.646 62.7989 66.7943 61.6561 68.2092 61.6561C69.6241 61.6561 70.7724 62.7989 70.7724 64.207Z" fill="#4CAF4F"/>
<path d="M87.177 64.207C87.177 65.6151 86.0287 66.7579 84.6138 66.7579C83.1989 66.7579 82.0505 65.6151 82.0505 64.207C82.0505 62.7989 83.1989 61.6561 84.6138 61.6561C86.0287 61.6561 87.177 62.7989 87.177 64.207Z" fill="#4CAF4F"/>
<path d="M5.12645 48.7929C5.12645 50.201 3.97813 51.3438 2.56323 51.3438C1.14833 51.3438 0 50.201 0 48.7929C0 47.3849 1.14833 46.2421 2.56323 46.2421C3.97813 46.2421 5.12645 47.3849 5.12645 48.7929Z" fill="#4CAF4F"/>
<path d="M21.538 48.7929C21.538 50.201 20.3896 51.3438 18.9747 51.3438C17.5598 51.3438 16.4115 50.201 16.4115 48.7929C16.4115 47.3849 17.5598 46.2421 18.9747 46.2421C20.3896 46.2421 21.538 47.3849 21.538 48.7929Z" fill="#4CAF4F"/>
<path d="M37.9495 48.7929C37.9495 50.201 36.8011 51.3438 35.3862 51.3438C33.9713 51.3438 32.823 50.201 32.823 48.7929C32.823 47.3849 33.9713 46.2421 35.3862 46.2421C36.8011 46.2421 37.9495 47.3849 37.9495 48.7929Z" fill="#4CAF4F"/>
<path d="M54.3609 48.7929C54.3609 50.201 53.2126 51.3438 51.7977 51.3438C50.3828 51.3438 49.2345 50.201 49.2345 48.7929C49.2345 47.3849 50.3828 46.2421 51.7977 46.2421C53.2126 46.2421 54.3609 47.3849 54.3609 48.7929Z" fill="#4CAF4F"/>
<path d="M70.7724 48.7929C70.7724 50.201 69.6241 51.3438 68.2092 51.3438C66.7943 51.3438 65.646 50.201 65.646 48.7929C65.646 47.3849 66.7943 46.2421 68.2092 46.2421C69.6241 46.2421 70.7724 47.3849 70.7724 48.7929Z" fill="#4CAF4F"/>
<path d="M87.177 48.7929C87.177 50.201 86.0287 51.3438 84.6138 51.3438C83.1989 51.3438 82.0505 50.201 82.0505 48.7929C82.0505 47.3849 83.1989 46.2421 84.6138 46.2421C86.0287 46.2421 87.177 47.3849 87.177 48.7929Z" fill="#4CAF4F"/>
<path d="M21.538 33.379C21.538 34.7871 20.3896 35.9299 18.9747 35.9299C17.5598 35.9299 16.4115 34.7871 16.4115 33.379C16.4115 31.9709 17.5598 30.8281 18.9747 30.8281C20.3896 30.8281 21.538 31.9709 21.538 33.379Z" fill="#4CAF4F"/>
<path d="M37.9495 33.379C37.9495 34.7871 36.8011 35.9299 35.3862 35.9299C33.9713 35.9299 32.823 34.7871 32.823 33.379C32.823 31.9709 33.9713 30.8281 35.3862 30.8281C36.8011 30.8281 37.9495 31.9709 37.9495 33.379Z" fill="#4CAF4F"/>
<path d="M54.3609 33.379C54.3609 34.7871 53.2126 35.9299 51.7977 35.9299C50.3828 35.9299 49.2345 34.7871 49.2345 33.379C49.2345 31.9709 50.3828 30.8281 51.7977 30.8281C53.2126 30.8281 54.3609 31.9709 54.3609 33.379Z" fill="#4CAF4F"/>
<path d="M70.7724 33.379C70.7724 34.7871 69.6241 35.9299 68.2092 35.9299C66.7943 35.9299 65.646 34.7871 65.646 33.379C65.646 31.9709 66.7943 30.8281 68.2092 30.8281C69.6241 30.8281 70.7724 31.9709 70.7724 33.379Z" fill="#4CAF4F"/>
<path d="M87.177 33.379C87.177 34.7871 86.0287 35.9299 84.6138 35.9299C83.1989 35.9299 82.0505 34.7871 82.0505 33.379C82.0505 31.9709 83.1989 30.8281 84.6138 30.8281C86.0287 30.8281 87.177 31.9709 87.177 33.379Z" fill="#4CAF4F"/>
<path d="M21.538 17.9649C21.538 19.373 20.3896 20.5158 18.9747 20.5158C17.5598 20.5158 16.4115 19.373 16.4115 17.9649C16.4115 16.5569 17.5598 15.4141 18.9747 15.4141C20.3896 15.4141 21.538 16.5569 21.538 17.9649Z" fill="#4CAF4F"/>
<path d="M37.9495 17.9649C37.9495 19.373 36.8011 20.5158 35.3862 20.5158C33.9713 20.5158 32.823 19.373 32.823 17.9649C32.823 16.5569 33.9713 15.4141 35.3862 15.4141C36.8011 15.4141 37.9495 16.5569 37.9495 17.9649Z" fill="#4CAF4F"/>
<path d="M54.3609 17.9649C54.3609 19.373 53.2126 20.5158 51.7977 20.5158C50.3828 20.5158 49.2345 19.373 49.2345 17.9649C49.2345 16.5569 50.3828 15.4141 51.7977 15.4141C53.2126 15.4141 54.3609 16.5569 54.3609 17.9649Z" fill="#4CAF4F"/>
<path d="M70.7724 17.9649C70.7724 19.373 69.6241 20.5158 68.2092 20.5158C66.7943 20.5158 65.646 19.373 65.646 17.9649C65.646 16.5569 66.7943 15.4141 68.2092 15.4141C69.6241 15.4141 70.7724 16.5569 70.7724 17.9649Z" fill="#4CAF4F"/>
<path d="M87.177 17.9649C87.177 19.373 86.0287 20.5158 84.6138 20.5158C83.1989 20.5158 82.0505 19.373 82.0505 17.9649C82.0505 16.5569 83.1989 15.4141 84.6138 15.4141C86.0287 15.4141 87.177 16.5569 87.177 17.9649Z" fill="#4CAF4F"/>
<path d="M37.9495 2.55087C37.9495 3.95895 36.8011 5.10173 35.3862 5.10173C33.9713 5.10173 32.823 3.95895 32.823 2.55087C32.823 1.14279 33.9713 0 35.3862 0C36.8011 0 37.9495 1.14279 37.9495 2.55087Z" fill="#4CAF4F"/>
<path d="M54.3609 2.55087C54.3609 3.95895 53.2126 5.10173 51.7977 5.10173C50.3828 5.10173 49.2345 3.95895 49.2345 2.55087C49.2345 1.14279 50.376 0 51.7977 0C53.2126 0 54.3609 1.14279 54.3609 2.55087Z" fill="#4CAF4F"/>
<path d="M70.7724 2.55087C70.7724 3.95895 69.6241 5.10173 68.2092 5.10173C66.7943 5.10173 65.646 3.95895 65.646 2.55087C65.646 1.14279 66.7875 0 68.2024 0C69.6241 0 70.7724 1.14279 70.7724 2.55087Z" fill="#4CAF4F"/>
<path d="M87.1771 2.55087C87.1771 3.95895 86.0288 5.10173 84.6139 5.10173C83.199 5.10173 82.0507 3.95895 82.0507 2.55087C82.0507 1.14279 83.199 0 84.6139 0C86.0288 0 87.1771 1.14279 87.1771 2.55087Z" fill="#4CAF4F"/>
</g>
<defs>
<clipPath id="clip0_42_1570">
<rect width="120" height="113" fill="white"/>
</clipPath>
</defs>
</svg>