<svg width="68" height="88" viewBox="0 0 68 88" fill="none" xmlns="http://www.w3.org/2000/svg">
<path d="M65.85 84.05C66.88 84.05 67.72 84.89 67.72 85.92C67.72 86.95 66.88 87.79 65.85 87.79C64.82 87.79 63.98 86.95 63.98 85.92C63.98 84.89 64.82 84.05 65.85 84.05Z" fill="#0DB75F"/>
<path d="M65.85 72.0901C66.88 72.0901 67.72 72.9301 67.72 73.9601C67.72 74.9901 66.88 75.8301 65.85 75.8301C64.82 75.8301 63.98 74.9901 63.98 73.9601C63.99 72.9301 64.82 72.0901 65.85 72.0901Z" fill="#0DB75F"/>
<path d="M65.85 60.1401C66.88 60.1401 67.72 60.9801 67.72 62.0101C67.72 63.0401 66.88 63.8801 65.85 63.8801C64.82 63.8801 63.98 63.0401 63.98 62.0101C63.98 60.9801 64.82 60.1401 65.85 60.1401Z" fill="#0DB75F"/>
<path d="M65.85 48.1802C66.88 48.1802 67.72 49.0202 67.72 50.0502C67.72 51.0802 66.88 51.9202 65.85 51.9202C64.82 51.9202 63.98 51.0802 63.98 50.0502C63.99 49.0202 64.82 48.1802 65.85 48.1802Z" fill="#0DB75F"/>
<path d="M65.85 36.2302C66.88 36.2302 67.72 37.0702 67.72 38.1002C67.72 39.1302 66.88 39.9702 65.85 39.9702C64.82 39.9702 63.98 39.1302 63.98 38.1002C63.98 37.0702 64.82 36.2302 65.85 36.2302Z" fill="#0DB75F"/>
<path d="M65.85 24.27C66.88 24.27 67.72 25.11 67.72 26.14C67.72 27.17 66.88 28.01 65.85 28.01C64.82 28.01 63.98 27.17 63.98 26.14C63.99 25.11 64.82 24.27 65.85 24.27Z" fill="#0DB75F"/>
<path d="M65.85 12.3201C66.88 12.3201 67.72 13.1601 67.72 14.1901C67.72 15.2201 66.88 16.0601 65.85 16.0601C64.82 16.0601 63.98 15.2201 63.98 14.1901C63.99 13.1501 64.82 12.3201 65.85 12.3201Z" fill="#0DB75F"/>
<path d="M65.85 0.360107C66.88 0.360107 67.72 1.20011 67.72 2.23011C67.72 3.26011 66.88 4.10011 65.85 4.10011C64.82 4.10011 63.98 3.26011 63.98 2.23011C63.99 1.20011 64.82 0.360107 65.85 0.360107Z" fill="#0DB75F"/>
<path d="M54.57 84.05C55.6 84.05 56.44 84.89 56.44 85.92C56.44 86.95 55.6 87.79 54.57 87.79C53.54 87.79 52.7 86.95 52.7 85.92C52.7 84.89 53.54 84.05 54.57 84.05Z" fill="#0DB75F"/>
<path d="M54.57 72.0901C55.6 72.0901 56.44 72.9301 56.44 73.9601C56.44 74.9901 55.6 75.8301 54.57 75.8301C53.54 75.8301 52.7 74.9901 52.7 73.9601C52.7 72.9301 53.54 72.0901 54.57 72.0901Z" fill="#0DB75F"/>
<path d="M54.57 60.1401C55.6 60.1401 56.44 60.9801 56.44 62.0101C56.44 63.0401 55.6 63.8801 54.57 63.8801C53.54 63.8801 52.7 63.0401 52.7 62.0101C52.7 60.9801 53.54 60.1401 54.57 60.1401Z" fill="#0DB75F"/>
<path d="M54.57 48.1802C55.6 48.1802 56.44 49.0202 56.44 50.0502C56.44 51.0802 55.6 51.9202 54.57 51.9202C53.54 51.9202 52.7 51.0802 52.7 50.0502C52.7 49.0202 53.54 48.1802 54.57 48.1802Z" fill="#0DB75F"/>
<path d="M54.57 36.2302C55.6 36.2302 56.44 37.0702 56.44 38.1002C56.44 39.1302 55.6 39.9702 54.57 39.9702C53.54 39.9702 52.7 39.1302 52.7 38.1002C52.7 37.0702 53.54 36.2302 54.57 36.2302Z" fill="#0DB75F"/>
<path d="M54.57 24.27C55.6 24.27 56.44 25.11 56.44 26.14C56.44 27.17 55.6 28.01 54.57 28.01C53.54 28.01 52.7 27.17 52.7 26.14C52.7 25.11 53.54 24.27 54.57 24.27Z" fill="#0DB75F"/>
<path d="M54.57 12.3201C55.6 12.3201 56.44 13.1601 56.44 14.1901C56.44 15.2201 55.6 16.0601 54.57 16.0601C53.54 16.0601 52.7 15.2201 52.7 14.1901C52.7 13.1501 53.54 12.3201 54.57 12.3201Z" fill="#0DB75F"/>
<path d="M54.57 0.360107C55.6 0.360107 56.44 1.20011 56.44 2.23011C56.44 3.26011 55.6 4.10011 54.57 4.10011C53.54 4.10011 52.7 3.26011 52.7 2.23011C52.7 1.20011 53.54 0.360107 54.57 0.360107Z" fill="#0DB75F"/>
<path d="M43.29 84.05C44.32 84.05 45.16 84.89 45.16 85.92C45.16 86.95 44.32 87.79 43.29 87.79C42.26 87.79 41.42 86.95 41.42 85.92C41.42 84.89 42.25 84.05 43.29 84.05Z" fill="#0DB75F"/>
<path d="M43.29 72.0901C44.32 72.0901 45.16 72.9301 45.16 73.9601C45.16 74.9901 44.32 75.8301 43.29 75.8301C42.26 75.8301 41.42 74.9901 41.42 73.9601C41.42 72.9301 42.25 72.0901 43.29 72.0901Z" fill="#0DB75F"/>
<path d="M43.29 60.1401C44.32 60.1401 45.16 60.9801 45.16 62.0101C45.16 63.0401 44.32 63.8801 43.29 63.8801C42.26 63.8801 41.42 63.0401 41.42 62.0101C41.42 60.9801 42.25 60.1401 43.29 60.1401Z" fill="#0DB75F"/>
<path d="M43.29 48.1802C44.32 48.1802 45.16 49.0202 45.16 50.0502C45.16 51.0802 44.32 51.9202 43.29 51.9202C42.26 51.9202 41.42 51.0802 41.42 50.0502C41.42 49.0202 42.25 48.1802 43.29 48.1802Z" fill="#0DB75F"/>
<path d="M43.29 36.2302C44.32 36.2302 45.16 37.0702 45.16 38.1002C45.16 39.1302 44.32 39.9702 43.29 39.9702C42.26 39.9702 41.42 39.1302 41.42 38.1002C41.42 37.0702 42.25 36.2302 43.29 36.2302Z" fill="#0DB75F"/>
<path d="M43.29 24.27C44.32 24.27 45.16 25.11 45.16 26.14C45.16 27.17 44.32 28.01 43.29 28.01C42.26 28.01 41.42 27.17 41.42 26.14C41.42 25.11 42.25 24.27 43.29 24.27Z" fill="#0DB75F"/>
<path d="M43.29 12.3201C44.32 12.3201 45.16 13.1601 45.16 14.1901C45.16 15.2201 44.32 16.0601 43.29 16.0601C42.26 16.0601 41.42 15.2201 41.42 14.1901C41.42 13.1501 42.25 12.3201 43.29 12.3201Z" fill="#0DB75F"/>
<path d="M43.29 0.360107C44.32 0.360107 45.16 1.20011 45.16 2.23011C45.16 3.26011 44.32 4.10011 43.29 4.10011C42.26 4.10011 41.42 3.26011 41.42 2.23011C41.42 1.20011 42.25 0.360107 43.29 0.360107Z" fill="#0DB75F"/>
<path d="M32 84.05C33.03 84.05 33.87 84.89 33.87 85.92C33.87 86.95 33.03 87.79 32 87.79C30.97 87.79 30.13 86.95 30.13 85.92C30.13 84.89 30.97 84.05 32 84.05Z" fill="#0DB75F"/>
<path d="M32 72.0901C33.03 72.0901 33.87 72.9301 33.87 73.9601C33.87 74.9901 33.03 75.8301 32 75.8301C30.97 75.8301 30.13 74.9901 30.13 73.9601C30.13 72.9301 30.97 72.0901 32 72.0901Z" fill="#0DB75F"/>
<path d="M32 60.1401C33.03 60.1401 33.87 60.9801 33.87 62.0101C33.87 63.0401 33.03 63.8801 32 63.8801C30.97 63.8801 30.13 63.0401 30.13 62.0101C30.13 60.9801 30.97 60.1401 32 60.1401Z" fill="#0DB75F"/>
<path d="M32 48.1802C33.03 48.1802 33.87 49.0202 33.87 50.0502C33.87 51.0802 33.03 51.9202 32 51.9202C30.97 51.9202 30.13 51.0802 30.13 50.0502C30.13 49.0202 30.97 48.1802 32 48.1802Z" fill="#0DB75F"/>
<path d="M32 36.2302C33.03 36.2302 33.87 37.0702 33.87 38.1002C33.87 39.1302 33.03 39.9702 32 39.9702C30.97 39.9702 30.13 39.1302 30.13 38.1002C30.13 37.0702 30.97 36.2302 32 36.2302Z" fill="#0DB75F"/>
<path d="M32 24.27C33.03 24.27 33.87 25.11 33.87 26.14C33.87 27.17 33.03 28.01 32 28.01C30.97 28.01 30.13 27.17 30.13 26.14C30.13 25.11 30.97 24.27 32 24.27Z" fill="#0DB75F"/>
<path d="M32 12.3201C33.03 12.3201 33.87 13.1601 33.87 14.1901C33.87 15.2201 33.03 16.0601 32 16.0601C30.97 16.0601 30.13 15.2201 30.13 14.1901C30.13 13.1501 30.97 12.3201 32 12.3201Z" fill="#0DB75F"/>
<path d="M32 0.360107C33.03 0.360107 33.87 1.20011 33.87 2.23011C33.87 3.26011 33.03 4.10011 32 4.10011C30.97 4.10011 30.13 3.26011 30.13 2.23011C30.13 1.20011 30.97 0.360107 32 0.360107Z" fill="#0DB75F"/>
<path d="M20.72 84.05C21.75 84.05 22.59 84.89 22.59 85.92C22.59 86.95 21.75 87.79 20.72 87.79C19.69 87.79 18.85 86.95 18.85 85.92C18.85 84.89 19.69 84.05 20.72 84.05Z" fill="#0DB75F"/>
<path d="M20.72 72.0901C21.75 72.0901 22.59 72.9301 22.59 73.9601C22.59 74.9901 21.75 75.8301 20.72 75.8301C19.69 75.8301 18.85 74.9901 18.85 73.9601C18.85 72.9301 19.69 72.0901 20.72 72.0901Z" fill="#0DB75F"/>
<path d="M20.72 60.1401C21.75 60.1401 22.59 60.9801 22.59 62.0101C22.59 63.0401 21.75 63.8801 20.72 63.8801C19.69 63.8801 18.85 63.0401 18.85 62.0101C18.85 60.9801 19.69 60.1401 20.72 60.1401Z" fill="#0DB75F"/>
<path d="M20.72 48.1802C21.75 48.1802 22.59 49.0202 22.59 50.0502C22.59 51.0802 21.75 51.9202 20.72 51.9202C19.69 51.9202 18.85 51.0802 18.85 50.0502C18.85 49.0202 19.69 48.1802 20.72 48.1802Z" fill="#0DB75F"/>
<path d="M20.72 36.2302C21.75 36.2302 22.59 37.0702 22.59 38.1002C22.59 39.1302 21.75 39.9702 20.72 39.9702C19.69 39.9702 18.85 39.1302 18.85 38.1002C18.85 37.0702 19.69 36.2302 20.72 36.2302Z" fill="#0DB75F"/>
<path d="M20.72 24.27C21.75 24.27 22.59 25.11 22.59 26.14C22.59 27.17 21.75 28.01 20.72 28.01C19.69 28.01 18.85 27.17 18.85 26.14C18.85 25.11 19.69 24.27 20.72 24.27Z" fill="#0DB75F"/>
<path d="M20.72 12.3201C21.75 12.3201 22.59 13.1601 22.59 14.1901C22.59 15.2201 21.75 16.0601 20.72 16.0601C19.69 16.0601 18.85 15.2201 18.85 14.1901C18.85 13.1501 19.69 12.3201 20.72 12.3201Z" fill="#0DB75F"/>
<path d="M20.72 0.360107C21.75 0.360107 22.59 1.20011 22.59 2.23011C22.59 3.26011 21.75 4.10011 20.72 4.10011C19.69 4.10011 18.85 3.26011 18.85 2.23011C18.85 1.20011 19.69 0.360107 20.72 0.360107Z" fill="#0DB75F"/>
<path d="M9.44001 84.05C10.47 84.05 11.31 84.89 11.31 85.92C11.31 86.95 10.47 87.79 9.44001 87.79C8.41001 87.79 7.57001 86.95 7.57001 85.92C7.57001 84.89 8.40001 84.05 9.44001 84.05Z" fill="#0DB75F"/>
<path d="M9.44001 72.0901C10.47 72.0901 11.31 72.9301 11.31 73.9601C11.31 74.9901 10.47 75.8301 9.44001 75.8301C8.41001 75.8301 7.57001 74.9901 7.57001 73.9601C7.57001 72.9301 8.40001 72.0901 9.44001 72.0901Z" fill="#0DB75F"/>
<path d="M9.44001 60.1401C10.47 60.1401 11.31 60.9801 11.31 62.0101C11.31 63.0401 10.47 63.8801 9.44001 63.8801C8.41001 63.8801 7.57001 63.0401 7.57001 62.0101C7.57001 60.9801 8.40001 60.1401 9.44001 60.1401Z" fill="#0DB75F"/>
<path d="M9.44001 48.1802C10.47 48.1802 11.31 49.0202 11.31 50.0502C11.31 51.0802 10.47 51.9202 9.44001 51.9202C8.41001 51.9202 7.57001 51.0802 7.57001 50.0502C7.57001 49.0202 8.40001 48.1802 9.44001 48.1802Z" fill="#0DB75F"/>
<path d="M9.44001 36.2302C10.47 36.2302 11.31 37.0702 11.31 38.1002C11.31 39.1302 10.47 39.9702 9.44001 39.9702C8.41001 39.9702 7.57001 39.1302 7.57001 38.1002C7.57001 37.0702 8.40001 36.2302 9.44001 36.2302Z" fill="#0DB75F"/>
<path d="M9.44001 24.27C10.47 24.27 11.31 25.11 11.31 26.14C11.31 27.17 10.47 28.01 9.44001 28.01C8.41001 28.01 7.57001 27.17 7.57001 26.14C7.57001 25.11 8.40001 24.27 9.44001 24.27Z" fill="#0DB75F"/>
<path d="M9.44001 12.3201C10.47 12.3201 11.31 13.1601 11.31 14.1901C11.31 15.2201 10.47 16.0601 9.44001 16.0601C8.41001 16.0601 7.57001 15.2201 7.57001 14.1901C7.57001 13.1501 8.40001 12.3201 9.44001 12.3201Z" fill="#0DB75F"/>
<path d="M9.44001 0.360107C10.47 0.360107 11.31 1.20011 11.31 2.23011C11.31 3.26011 10.47 4.10011 9.44001 4.10011C8.41001 4.10011 7.57001 3.26011 7.57001 2.23011C7.57001 1.20011 8.40001 0.360107 9.44001 0.360107Z" fill="#0DB75F"/>
<path d="M-1.85 84.05C-0.820001 84.05 0.0199995 84.89 0.0199995 85.92C0.0199995 86.95 -0.820001 87.79 -1.85 87.79C-2.88 87.79 -3.72 86.95 -3.72 85.92C-3.72 84.89 -2.88 84.05 -1.85 84.05Z" fill="#0DB75F"/>
<path d="M-1.85 72.0901C-0.820001 72.0901 0.0199995 72.9301 0.0199995 73.9601C0.0199995 74.9901 -0.820001 75.8301 -1.85 75.8301C-2.88 75.8301 -3.72 74.9901 -3.72 73.9601C-3.72 72.9301 -2.88 72.0901 -1.85 72.0901Z" fill="#0DB75F"/>
<path d="M-1.85 60.1401C-0.820001 60.1401 0.0199995 60.9801 0.0199995 62.0101C0.0199995 63.0401 -0.820001 63.8801 -1.85 63.8801C-2.88 63.8801 -3.72 63.0401 -3.72 62.0101C-3.72 60.9801 -2.88 60.1401 -1.85 60.1401Z" fill="#0DB75F"/>
<path d="M-1.85 48.1802C-0.820001 48.1802 0.0199995 49.0202 0.0199995 50.0502C0.0199995 51.0802 -0.820001 51.9202 -1.85 51.9202C-2.88 51.9202 -3.72 51.0802 -3.72 50.0502C-3.72 49.0202 -2.88 48.1802 -1.85 48.1802Z" fill="#0DB75F"/>
<path d="M-1.85 36.2302C-0.820001 36.2302 0.0199995 37.0702 0.0199995 38.1002C0.0199995 39.1302 -0.820001 39.9702 -1.85 39.9702C-2.88 39.9702 -3.72 39.1302 -3.72 38.1002C-3.72 37.0702 -2.88 36.2302 -1.85 36.2302Z" fill="#0DB75F"/>
<path d="M-1.85 24.27C-0.820001 24.27 0.0199995 25.11 0.0199995 26.14C0.0199995 27.17 -0.820001 28.01 -1.85 28.01C-2.88 28.01 -3.72 27.17 -3.72 26.14C-3.72 25.11 -2.88 24.27 -1.85 24.27Z" fill="#0DB75F"/>
<path d="M-1.85 12.3201C-0.820001 12.3201 0.0199995 13.1601 0.0199995 14.1901C0.0199995 15.2201 -0.820001 16.0601 -1.85 16.0601C-2.88 16.0601 -3.72 15.2201 -3.72 14.1901C-3.72 13.1501 -2.88 12.3201 -1.85 12.3201Z" fill="#0DB75F"/>
<path d="M-1.85 0.360107C-0.820001 0.360107 0.0199995 1.20011 0.0199995 2.23011C0.0199995 3.26011 -0.820001 4.10011 -1.85 4.10011C-2.88 4.10011 -3.72 3.26011 -3.72 2.23011C-3.72 1.20011 -2.88 0.360107 -1.85 0.360107Z" fill="#0DB75F"/>
</svg>
