<svg width="269" height="100" viewBox="0 0 269 100" fill="none" xmlns="http://www.w3.org/2000/svg">
<path d="M246.495 14.1999C202.623 8.47749 164.111 25.108 139.384 62.1998C126.723 81.191 153.173 111.137 165.695 88.5998C177.372 67.5831 140.477 41.0559 124.895 36.9554C91.0864 28.0583 58.4186 30.1999 24.0949 30.1999" stroke="#0DB75F" stroke-width="5" stroke-linecap="round"/>
<path d="M19.2949 20.6001C15.6315 22.973 -4.20812 31.5445 5.7838 35.1779C10.8764 37.0297 15.798 40.8157 20.8949 43.0001" stroke="#0DB75F" stroke-width="5" stroke-linecap="round"/>
<path d="M244.895 3C246.906 4.08459 264.841 10.8116 265.606 13.4889C266.305 15.9348 262.283 16.231 260.895 17.4C257.144 20.5584 254.126 21.1527 251.295 25.4" stroke="#0DB75F" stroke-width="5" stroke-linecap="round"/>
</svg>