<svg width="366" height="291" viewBox="0 0 366 291" fill="none" xmlns="http://www.w3.org/2000/svg">
<path d="M296 182.273C293.245 182.273 291 179.372 291 175.795C291 172.218 293.245 169.317 296 169.317C298.755 169.317 301 172.226 301 175.795C301 179.364 298.761 182.273 296 182.273ZM296 170.99C293.955 170.99 292.292 173.145 292.292 175.795C292.292 178.445 293.955 180.6 296 180.6C298.045 180.6 299.708 178.445 299.708 175.795C299.708 173.145 298.045 170.99 296 170.99Z" fill="#0DB75F"/>
<g clip-path="url(#clip0_0_1)">
<path d="M10.3609 288.449C10.3609 289.857 9.21256 291 7.79766 291C6.38276 291 5.23444 289.857 5.23444 288.449C5.23444 287.041 6.38276 285.898 7.79766 285.898C9.21256 285.891 10.3609 287.034 10.3609 288.449Z" fill="#4CAF4F"/>
<path d="M26.7724 288.449C26.7724 289.857 25.6241 291 24.2092 291C22.7943 291 21.6459 289.857 21.6459 288.449C21.6459 287.041 22.7943 285.898 24.2092 285.898C25.6241 285.891 26.7724 287.034 26.7724 288.449Z" fill="#4CAF4F"/>
<path d="M43.177 288.449C43.177 289.857 42.0287 291 40.6138 291C39.1989 291 38.0506 289.857 38.0506 288.449C38.0506 287.041 39.1989 285.898 40.6138 285.898C42.0287 285.891 43.177 287.034 43.177 288.449Z" fill="#4CAF4F"/>
<path d="M10.3609 273.035C10.3609 274.443 9.21259 275.586 7.79769 275.586C6.38279 275.586 5.23447 274.443 5.23447 273.035C5.23447 271.627 6.38279 270.484 7.79769 270.484C9.21259 270.484 10.3609 271.62 10.3609 273.035Z" fill="#4CAF4F"/>
<path d="M26.7724 273.035C26.7724 274.443 25.6241 275.586 24.2092 275.586C22.7943 275.586 21.6459 274.443 21.6459 273.035C21.6459 271.627 22.7943 270.484 24.2092 270.484C25.6241 270.484 26.7724 271.62 26.7724 273.035Z" fill="#4CAF4F"/>
<path d="M43.1771 273.035C43.1771 274.443 42.0287 275.586 40.6138 275.586C39.1989 275.586 38.0506 274.443 38.0506 273.035C38.0506 271.627 39.1989 270.484 40.6138 270.484C42.0287 270.484 43.1771 271.62 43.1771 273.035Z" fill="#4CAF4F"/>
<path d="M59.5885 273.035C59.5885 274.443 58.4402 275.586 57.0253 275.586C55.6104 275.586 54.4621 274.443 54.4621 273.035C54.4621 271.627 55.6104 270.484 57.0253 270.484C58.4402 270.484 59.5885 271.62 59.5885 273.035Z" fill="#4CAF4F"/>
<path d="M10.3609 257.621C10.3609 259.029 9.21259 260.172 7.79769 260.172C6.38279 260.172 5.23447 259.029 5.23447 257.621C5.23447 256.213 6.38279 255.07 7.79769 255.07C9.21259 255.07 10.3609 256.213 10.3609 257.621Z" fill="#4CAF4F"/>
<path d="M26.7724 257.621C26.7724 259.029 25.6241 260.172 24.2092 260.172C22.7943 260.172 21.6459 259.029 21.6459 257.621C21.6459 256.213 22.7943 255.07 24.2092 255.07C25.6241 255.07 26.7724 256.213 26.7724 257.621Z" fill="#4CAF4F"/>
<path d="M43.1771 257.621C43.1771 259.029 42.0287 260.172 40.6138 260.172C39.1989 260.172 38.0506 259.029 38.0506 257.621C38.0506 256.213 39.1989 255.07 40.6138 255.07C42.0287 255.07 43.1771 256.213 43.1771 257.621Z" fill="#4CAF4F"/>
<path d="M59.5885 257.621C59.5885 259.029 58.4402 260.172 57.0253 260.172C55.6104 260.172 54.4621 259.029 54.4621 257.621C54.4621 256.213 55.6104 255.07 57.0253 255.07C58.4402 255.07 59.5885 256.213 59.5885 257.621Z" fill="#4CAF4F"/>
<path d="M10.3609 242.207C10.3609 243.615 9.21256 244.758 7.79766 244.758C6.38276 244.758 5.23444 243.615 5.23444 242.207C5.23444 240.799 6.38276 239.656 7.79766 239.656C9.21256 239.656 10.3609 240.799 10.3609 242.207Z" fill="#4CAF4F"/>
<path d="M26.7724 242.207C26.7724 243.615 25.6241 244.758 24.2092 244.758C22.7943 244.758 21.6459 243.615 21.6459 242.207C21.6459 240.799 22.7943 239.656 24.2092 239.656C25.6241 239.656 26.7724 240.799 26.7724 242.207Z" fill="#4CAF4F"/>
<path d="M43.177 242.207C43.177 243.615 42.0287 244.758 40.6138 244.758C39.1989 244.758 38.0506 243.615 38.0506 242.207C38.0506 240.799 39.1989 239.656 40.6138 239.656C42.0287 239.656 43.177 240.799 43.177 242.207Z" fill="#4CAF4F"/>
<path d="M59.5885 242.207C59.5885 243.615 58.4402 244.758 57.0253 244.758C55.6104 244.758 54.4621 243.615 54.4621 242.207C54.4621 240.799 55.6104 239.656 57.0253 239.656C58.4402 239.656 59.5885 240.799 59.5885 242.207Z" fill="#4CAF4F"/>
<path d="M73.4368 244.758C74.8524 244.758 76 243.616 76 242.207C76 240.798 74.8524 239.656 73.4368 239.656C72.0211 239.656 70.8736 240.798 70.8736 242.207C70.8736 243.616 72.0211 244.758 73.4368 244.758Z" fill="#4CAF4F"/>
<path d="M10.3609 226.793C10.3609 228.201 9.21256 229.344 7.79766 229.344C6.38276 229.344 5.23444 228.201 5.23444 226.793C5.23444 225.385 6.38276 224.242 7.79766 224.242C9.21256 224.242 10.3609 225.385 10.3609 226.793Z" fill="#4CAF4F"/>
<path d="M26.7724 226.793C26.7724 228.201 25.6241 229.344 24.2092 229.344C22.7943 229.344 21.6459 228.201 21.6459 226.793C21.6459 225.385 22.7943 224.242 24.2092 224.242C25.6241 224.242 26.7724 225.385 26.7724 226.793Z" fill="#4CAF4F"/>
<path d="M43.177 226.793C43.177 228.201 42.0287 229.344 40.6138 229.344C39.1989 229.344 38.0506 228.201 38.0506 226.793C38.0506 225.385 39.1989 224.242 40.6138 224.242C42.0287 224.242 43.177 225.385 43.177 226.793Z" fill="#4CAF4F"/>
<path d="M59.5885 226.793C59.5885 228.201 58.4402 229.344 57.0253 229.344C55.6104 229.344 54.4621 228.201 54.4621 226.793C54.4621 225.385 55.6104 224.242 57.0253 224.242C58.4402 224.242 59.5885 225.385 59.5885 226.793Z" fill="#4CAF4F"/>
<path d="M76 226.793C76 228.201 74.8517 229.344 73.4368 229.344C72.0219 229.344 70.8736 228.201 70.8736 226.793C70.8736 225.385 72.0219 224.242 73.4368 224.242C74.8517 224.242 76 225.385 76 226.793Z" fill="#4CAF4F"/>
<path d="M10.3609 211.379C10.3609 212.787 9.21259 213.93 7.79769 213.93C6.38279 213.93 5.23447 212.787 5.23447 211.379C5.23447 209.971 6.38279 208.828 7.79769 208.828C9.21259 208.828 10.3609 209.971 10.3609 211.379Z" fill="#4CAF4F"/>
<path d="M26.7724 211.379C26.7724 212.787 25.6241 213.93 24.2092 213.93C22.7943 213.93 21.6459 212.787 21.6459 211.379C21.6459 209.971 22.7943 208.828 24.2092 208.828C25.6241 208.828 26.7724 209.971 26.7724 211.379Z" fill="#4CAF4F"/>
<path d="M43.1771 211.379C43.1771 212.787 42.0287 213.93 40.6138 213.93C39.1989 213.93 38.0506 212.787 38.0506 211.379C38.0506 209.971 39.1989 208.828 40.6138 208.828C42.0287 208.828 43.1771 209.971 43.1771 211.379Z" fill="#4CAF4F"/>
<path d="M59.5885 211.379C59.5885 212.787 58.4402 213.93 57.0253 213.93C55.6104 213.93 54.4621 212.787 54.4621 211.379C54.4621 209.971 55.6104 208.828 57.0253 208.828C58.4402 208.828 59.5885 209.971 59.5885 211.379Z" fill="#4CAF4F"/>
<path d="M10.3609 195.965C10.3609 197.373 9.21259 198.516 7.79769 198.516C6.38279 198.516 5.23447 197.373 5.23447 195.965C5.23447 194.557 6.38279 193.414 7.79769 193.414C9.21259 193.414 10.3609 194.557 10.3609 195.965Z" fill="#4CAF4F"/>
<path d="M26.7724 195.965C26.7724 197.373 25.6241 198.516 24.2092 198.516C22.7943 198.516 21.6459 197.373 21.6459 195.965C21.6459 194.557 22.7943 193.414 24.2092 193.414C25.6241 193.414 26.7724 194.557 26.7724 195.965Z" fill="#4CAF4F"/>
<path d="M43.1771 195.965C43.1771 197.373 42.0287 198.516 40.6138 198.516C39.1989 198.516 38.0506 197.373 38.0506 195.965C38.0506 194.557 39.1989 193.414 40.6138 193.414C42.0287 193.414 43.1771 194.557 43.1771 195.965Z" fill="#4CAF4F"/>
<path d="M59.5885 195.965C59.5885 197.373 58.4402 198.516 57.0253 198.516C55.6104 198.516 54.4621 197.373 54.4621 195.965C54.4621 194.557 55.6104 193.414 57.0253 193.414C58.4402 193.414 59.5885 194.557 59.5885 195.965Z" fill="#4CAF4F"/>
<path d="M10.3609 180.551C10.3609 181.959 9.21256 183.102 7.79766 183.102C6.38276 183.102 5.23444 181.959 5.23444 180.551C5.23444 179.143 6.37593 178 7.79766 178C9.21256 178 10.3609 179.143 10.3609 180.551Z" fill="#4CAF4F"/>
<path d="M26.7724 180.551C26.7724 181.959 25.6241 183.102 24.2092 183.102C22.7943 183.102 21.6459 181.959 21.6459 180.551C21.6459 179.143 22.7874 178 24.2023 178C25.6241 178 26.7724 179.143 26.7724 180.551Z" fill="#4CAF4F"/>
<path d="M43.177 180.551C43.177 181.959 42.0287 183.102 40.6138 183.102C39.1989 183.102 38.0506 181.959 38.0506 180.551C38.0506 179.143 39.1989 178 40.6138 178C42.0287 178 43.177 179.143 43.177 180.551Z" fill="#4CAF4F"/>
</g>
<g clip-path="url(#clip1_0_1)">
<path d="M198.02 104.04C193.05 104.04 189 100 189 95.02C189 90.04 193.05 86 198.02 86C202.99 86 207.04 90.05 207.04 95.02C207.04 99.99 203 104.04 198.02 104.04ZM198.02 88.33C194.33 88.33 191.33 91.33 191.33 95.02C191.33 98.71 194.33 101.71 198.02 101.71C201.71 101.71 204.71 98.71 204.71 95.02C204.71 91.33 201.71 88.33 198.02 88.33Z" fill="#E33E38"/>
</g>
<g clip-path="url(#clip2_0_1)">
<path d="M356.02 95.04C351.05 95.04 347 91 347 86.02C347 81.04 351.05 77 356.02 77C360.99 77 365.04 81.05 365.04 86.02C365.04 90.99 361 95.04 356.02 95.04ZM356.02 79.33C352.33 79.33 349.33 82.33 349.33 86.02C349.33 89.71 352.33 92.71 356.02 92.71C359.71 92.71 362.71 89.71 362.71 86.02C362.71 82.33 359.71 79.33 356.02 79.33Z" fill="#1891D0"/>
</g>
<g clip-path="url(#clip3_0_1)">
<path d="M1.02 122.04C-3.95 122.04 -8 118 -8 113.02C-8 108.04 -3.95 104 1.02 104C5.99 104 10.04 108.05 10.04 113.02C10.04 117.99 6 122.04 1.02 122.04ZM1.02 106.33C-2.67 106.33 -5.67 109.33 -5.67 113.02C-5.67 116.71 -2.67 119.71 1.02 119.71C4.71 119.71 7.71 116.71 7.71 113.02C7.71 109.33 4.71 106.33 1.02 106.33Z" fill="#E33E38"/>
</g>
<g clip-path="url(#clip4_0_1)">
<path d="M19.02 18.04C14.05 18.04 10 14 10 9.02C10 4.04 14.05 0 19.02 0C23.99 0 28.04 4.05 28.04 9.02C28.04 13.99 24 18.04 19.02 18.04ZM19.02 2.33C15.33 2.33 12.33 5.33 12.33 9.02C12.33 12.71 15.33 15.71 19.02 15.71C22.71 15.71 25.71 12.71 25.71 9.02C25.71 5.33 22.71 2.33 19.02 2.33Z" fill="#0DB75F"/>
</g>
<defs>
<clipPath id="clip0_0_1">
<rect width="120" height="113" fill="white" transform="translate(-44 178)"/>
</clipPath>
<clipPath id="clip1_0_1">
<rect width="18.04" height="18.04" fill="white" transform="translate(189 86)"/>
</clipPath>
<clipPath id="clip2_0_1">
<rect width="18.04" height="18.04" fill="white" transform="translate(347 77)"/>
</clipPath>
<clipPath id="clip3_0_1">
<rect width="18.04" height="18.04" fill="white" transform="translate(-8 104)"/>
</clipPath>
<clipPath id="clip4_0_1">
<rect width="18.04" height="18.04" fill="white" transform="translate(10)"/>
</clipPath>
</defs>
</svg>