<svg width="28" height="20" viewBox="0 0 28 20" fill="none" xmlns="http://www.w3.org/2000/svg">
<path d="M24.0227 19.9519H3.97727C2.92281 19.9506 1.9119 19.5312 1.16628 18.7856C0.420669 18.04 0.00123836 17.0291 0 15.9746V3.97727C0.00123836 2.92281 0.420669 1.9119 1.16628 1.16628C1.9119 0.420669 2.92281 0.00123836 3.97727 0H24.0227C25.0772 0.00123836 26.0881 0.420669 26.8337 1.16628C27.5793 1.9119 27.9988 2.92281 28 3.97727V15.9746C27.9988 17.0291 27.5793 18.04 26.8337 18.7856C26.0881 19.5312 25.0772 19.9506 24.0227 19.9519ZM3.97727 1.40374C3.29473 1.40374 2.64014 1.67488 2.15751 2.15751C1.67488 2.64014 1.40374 3.29473 1.40374 3.97727V15.9746C1.40374 16.6571 1.67488 17.3117 2.15751 17.7944C2.64014 18.277 3.29473 18.5481 3.97727 18.5481H24.0227C24.7053 18.5481 25.3599 18.277 25.8425 17.7944C26.3251 17.3117 26.5963 16.6571 26.5963 15.9746V3.97727C26.5963 3.29473 26.3251 2.64014 25.8425 2.15751C25.3599 1.67488 24.7053 1.40374 24.0227 1.40374H3.97727Z" fill="white"/>
<path d="M14 12.8208C13.1342 12.8221 12.2915 12.5412 11.5996 12.0206L0.673791 3.75727C0.596595 3.70309 0.53111 3.63391 0.481247 3.55386C0.431383 3.47381 0.398164 3.38453 0.383573 3.29136C0.368982 3.19818 0.373319 3.10302 0.396324 3.01156C0.419329 2.9201 0.460531 2.83421 0.517469 2.75903C0.574407 2.68384 0.645913 2.62091 0.727717 2.57397C0.80952 2.52704 0.899943 2.49708 0.993585 2.48587C1.08723 2.47466 1.18217 2.48244 1.27274 2.50874C1.36331 2.53505 1.44764 2.57933 1.52072 2.63895L12.4465 10.9117C12.8952 11.2466 13.4401 11.4276 14 11.4276C14.5599 11.4276 15.1048 11.2466 15.5535 10.9117L26.4793 2.63895C26.5523 2.57933 26.6367 2.53505 26.7273 2.50874C26.8178 2.48244 26.9128 2.47466 27.0064 2.48587C27.1 2.49708 27.1905 2.52704 27.2723 2.57397C27.3541 2.62091 27.4256 2.68384 27.4825 2.75903C27.5395 2.83421 27.5807 2.9201 27.6037 3.01156C27.6267 3.10302 27.631 3.19818 27.6164 3.29136C27.6018 3.38453 27.5686 3.47381 27.5187 3.55386C27.4689 3.63391 27.4034 3.70309 27.3262 3.75727L16.4004 12.0206C15.7085 12.5412 14.8658 12.8221 14 12.8208Z" fill="white"/>
<path d="M0.977951 17.9959C0.835598 17.9961 0.696547 17.9531 0.579249 17.8724C0.46195 17.7918 0.371949 17.6773 0.321187 17.5443C0.270426 17.4113 0.261305 17.2661 0.295033 17.1278C0.328762 16.9895 0.403746 16.8647 0.510036 16.77L9.11966 9.09152C9.25865 8.96742 9.44125 8.90362 9.62728 8.91415C9.81331 8.92468 9.98754 9.00868 10.1116 9.14767C10.2357 9.28666 10.2995 9.46926 10.289 9.65529C10.2785 9.84132 10.1945 10.0155 10.0555 10.1396L1.44587 17.8181C1.31801 17.9345 1.1508 17.998 0.977951 17.9959ZM27.0221 17.9959C26.8492 17.998 26.682 17.9345 26.5542 17.8181L17.9445 10.1396C17.8055 10.0155 17.7215 9.84132 17.711 9.65529C17.7005 9.46926 17.7643 9.28666 17.8884 9.14767C18.0125 9.00868 18.1867 8.92468 18.3727 8.91415C18.5588 8.90362 18.7414 8.96742 18.8804 9.09152L27.4853 16.77C27.5916 16.8647 27.6666 16.9895 27.7003 17.1278C27.734 17.2661 27.7249 17.4113 27.6742 17.5443C27.6234 17.6773 27.5334 17.7918 27.4161 17.8724C27.2988 17.9531 27.1597 17.9961 27.0174 17.9959H27.0221Z" fill="white"/>
</svg>
