<svg width="27" height="27" viewBox="0 0 27 27" fill="none" xmlns="http://www.w3.org/2000/svg">
<rect width="27" height="27" rx="2" fill="#0DB75F"/>
<path d="M13.5023 8.30816C10.6291 8.30816 8.31157 10.6262 8.31157 13.5C8.31157 16.3738 10.6291 18.6918 13.5023 18.6918C16.3754 18.6918 18.6929 16.3738 18.6929 13.5C18.6929 10.6262 16.3754 8.30816 13.5023 8.30816ZM13.5023 16.8754C11.6455 16.8754 10.1276 15.3617 10.1276 13.5C10.1276 11.6383 11.641 10.1246 13.5023 10.1246C15.3635 10.1246 16.8769 11.6383 16.8769 13.5C16.8769 15.3617 15.359 16.8754 13.5023 16.8754ZM20.116 8.09578C20.116 8.76905 19.5739 9.30676 18.9053 9.30676C18.2322 9.30676 17.6946 8.76453 17.6946 8.09578C17.6946 7.42703 18.2367 6.8848 18.9053 6.8848C19.5739 6.8848 20.116 7.42703 20.116 8.09578ZM23.5538 9.32483C23.477 7.70267 23.1066 6.26576 21.9185 5.08189C20.7349 3.89803 19.2983 3.5275 17.6765 3.44617C16.005 3.35128 10.995 3.35128 9.32351 3.44617C7.70622 3.52298 6.26963 3.89351 5.08151 5.07737C3.89339 6.26124 3.52747 7.69815 3.44615 9.32032C3.35128 10.9922 3.35128 16.0033 3.44615 17.6752C3.52295 19.2973 3.89339 20.7342 5.08151 21.9181C6.26963 23.102 7.7017 23.4725 9.32351 23.5538C10.995 23.6487 16.005 23.6487 17.6765 23.5538C19.2983 23.477 20.7349 23.1065 21.9185 21.9181C23.1021 20.7342 23.4725 19.2973 23.5538 17.6752C23.6487 16.0033 23.6487 10.9967 23.5538 9.32483ZM21.3944 19.469C21.0421 20.3547 20.3599 21.037 19.47 21.394C18.1373 21.9226 14.975 21.8006 13.5023 21.8006C12.0295 21.8006 8.86272 21.9181 7.53455 21.394C6.64911 21.0415 5.96695 20.3592 5.61007 19.469C5.08151 18.1361 5.20349 14.9731 5.20349 13.5C5.20349 12.0269 5.08603 8.85942 5.61007 7.53096C5.96244 6.64532 6.64459 5.96301 7.53455 5.60605C8.86723 5.07737 12.0295 5.19937 13.5023 5.19937C14.975 5.19937 18.1418 5.08189 19.47 5.60605C20.3554 5.9585 21.0376 6.6408 21.3944 7.53096C21.923 8.86394 21.801 12.0269 21.801 13.5C21.801 14.9731 21.923 18.1406 21.3944 19.469Z" fill="white"/>
</svg>
