<svg width="27" height="27" viewBox="0 0 27 27" fill="none" xmlns="http://www.w3.org/2000/svg">
<path d="M25.0714 0H1.92254C0.86183 0 0 0.873884 0 1.94665V25.0533C0 26.1261 0.86183 27 1.92254 27H25.0714C26.1321 27 27 26.1261 27 25.0533V1.94665C27 0.873884 26.1321 0 25.0714 0ZM8.16027 23.1429H6.15848C5.05391 23.1429 4.15848 22.2474 4.15848 21.1429V12.2576C4.15848 11.153 5.05782 10.2576 6.16239 10.2576C7.26696 10.2576 8.1663 11.153 8.1663 12.2576V23.1368C8.1663 23.1402 8.1636 23.1429 8.16027 23.1429ZM6.15937 8.49777C4.87567 8.49777 3.83906 7.45513 3.83906 6.17746C3.83906 4.89978 4.87567 3.85714 6.15937 3.85714C7.43705 3.85714 8.47969 4.89978 8.47969 6.17746C8.47969 7.46116 7.44308 8.49777 6.15937 8.49777ZM23.1609 21.1429C23.1609 22.2474 22.2646 23.1429 21.16 23.1429C20.0555 23.1429 19.1592 22.2474 19.1592 21.1429V16.875C19.1592 15.3804 19.129 13.4578 17.0799 13.4578C14.9946 13.4578 14.6752 15.085 14.6752 16.7665V21.1429C14.6752 22.2474 13.7789 23.1429 12.6743 23.1429C11.5698 23.1429 10.6734 22.2474 10.6734 21.1429V12.1771C10.6734 11.117 11.5328 10.2576 12.593 10.2576H13.6326C14.1186 10.2576 14.5125 10.6515 14.5125 11.1375V11.9836C14.5125 12.0023 14.5277 12.0174 14.5464 12.0174C14.5589 12.0174 14.5703 12.0106 14.5763 11.9996C15.1185 10.9924 16.4224 9.93817 18.3576 9.93817C22.4076 9.93817 23.1609 12.608 23.1609 16.0795V21.1429Z" fill="#0DB75F"/>
</svg>
