<svg width="33" height="33" viewBox="0 0 33 33" fill="none" xmlns="http://www.w3.org/2000/svg">
<path d="M6.1875 4.125C6.1875 3.03098 6.6221 1.98177 7.39568 1.20818C8.16927 0.434597 9.21848 0 10.3125 0L22.6875 0C23.7815 0 24.8307 0.434597 25.6043 1.20818C26.3779 1.98177 26.8125 3.03098 26.8125 4.125V28.875C26.8125 29.969 26.3779 31.0182 25.6043 31.7918C24.8307 32.5654 23.7815 33 22.6875 33H10.3125C9.21848 33 8.16927 32.5654 7.39568 31.7918C6.6221 31.0182 6.1875 29.969 6.1875 28.875V4.125ZM18.5625 26.8125C18.5625 26.2655 18.3452 25.7409 17.9584 25.3541C17.5716 24.9673 17.047 24.75 16.5 24.75C15.953 24.75 15.4284 24.9673 15.0416 25.3541C14.6548 25.7409 14.4375 26.2655 14.4375 26.8125C14.4375 27.3595 14.6548 27.8841 15.0416 28.2709C15.4284 28.6577 15.953 28.875 16.5 28.875C17.047 28.875 17.5716 28.6577 17.9584 28.2709C18.3452 27.8841 18.5625 27.3595 18.5625 26.8125Z" fill="#0DB75F"/>
</svg>