<svg width="25" height="25" viewBox="0 0 25 25" fill="none" xmlns="http://www.w3.org/2000/svg">
<path d="M23.61 16.974L21.41 14.774C20.7542 14.1234 19.869 13.7567 18.9453 13.7527C18.0215 13.7488 17.1333 14.108 16.472 14.753C16.1191 15.1078 15.6536 15.3286 15.1555 15.3774C14.6574 15.4261 14.1579 15.2997 13.743 15.02C12.1052 13.9269 10.6982 12.5226 9.60197 10.887C9.32713 10.4674 9.20531 9.96588 9.25704 9.46697C9.30878 8.96806 9.53089 8.50223 9.88597 8.14796C10.5251 7.48603 10.8797 6.60023 10.8739 5.68014C10.8681 4.76006 10.5023 3.87879 9.85497 3.22496L7.65497 1.02496C6.99631 0.368568 6.10434 0 5.17447 0C4.24459 0 3.35262 0.368568 2.69397 1.02496L2.06097 1.65896C-1.23903 4.95896 -0.992035 11.897 5.87397 18.759C10.014 22.9 14.181 24.634 17.56 24.634C18.5546 24.6671 19.5459 24.5019 20.4761 24.1481C21.4063 23.7942 22.2568 23.2588 22.978 22.573L23.612 21.939C24.2696 21.28 24.6387 20.387 24.6383 19.456C24.638 18.5251 24.2681 17.6324 23.61 16.974ZM22.196 20.525L21.562 21.159C18.962 23.759 13.223 23.284 7.28597 17.346C1.34897 11.408 0.872966 5.66496 3.47297 3.06496L4.10197 2.43196C4.38517 2.14978 4.76867 1.99133 5.16847 1.99133C5.56826 1.99133 5.95176 2.14978 6.23497 2.43196L8.43497 4.63196C8.71303 4.91142 8.87086 5.28848 8.87479 5.68269C8.87871 6.07689 8.72841 6.45703 8.45597 6.74196C7.78024 7.42199 7.35874 8.31358 7.26207 9.26736C7.1654 10.2211 7.39943 11.1792 7.92497 11.981C9.17051 13.8449 10.7722 15.4442 12.638 16.687C13.4373 17.2126 14.3929 17.448 15.3449 17.3539C16.297 17.2598 17.1879 16.8419 17.869 16.17C18.1534 15.8943 18.5346 15.7412 18.9306 15.7436C19.3267 15.7461 19.706 15.9038 19.987 16.183L22.187 18.383C22.3288 18.5227 22.4415 18.6891 22.5188 18.8726C22.596 19.0561 22.6362 19.253 22.637 19.4521C22.6379 19.6512 22.5993 19.8484 22.5236 20.0326C22.4479 20.2167 22.3366 20.384 22.196 20.525Z" fill="white"/>
</svg>
